<?xml version="1.0" encoding="UTF-8"?>
<!DOCTYPE svg PUBLIC "-//W3C//DTD SVG 1.1//EN" "http://www.w3.org/Graphics/SVG/1.1/DTD/svg11.dtd">
<svg xmlns="http://www.w3.org/2000/svg" version="1.1" width="96px" height="96px" style="shape-rendering:geometricPrecision; text-rendering:geometricPrecision; image-rendering:optimizeQuality; fill-rule:evenodd; clip-rule:evenodd" xmlns:xlink="http://www.w3.org/1999/xlink">
<g><path style="opacity:1" fill="#feeebb" d="M 69.5,62.5 C 67.8333,63.1667 66.1667,63.8333 64.5,64.5C 64.7086,63.0783 65.2086,61.745 66,60.5C 71.3943,58.1863 71.8943,55.0197 67.5,51C 65.1261,51.4024 62.7928,51.2357 60.5,50.5C 58.5721,52.0499 56.7387,53.7166 55,55.5C 54.028,53.6951 52.8613,52.0284 51.5,50.5C 52.6446,49.109 52.6446,47.7757 51.5,46.5C 50.7174,48.2882 49.3841,49.2882 47.5,49.5C 47.5,43.1667 47.5,36.8333 47.5,30.5C 47.5,27.1667 47.5,23.8333 47.5,20.5C 48.5307,21.355 49.6974,22.0217 51,22.5C 52.2349,21.3845 53.4016,21.3845 54.5,22.5C 55.8333,21.5 57.1667,20.5 58.5,19.5C 76.9953,29.9352 80.662,44.2686 69.5,62.5 Z"/></g>
<g><path style="opacity:0.925" fill="#f1c073" d="M 47.5,11.5 C 62.8893,11.7158 74.056,18.7158 81,32.5C 88.0068,53.826 81.8401,69.9927 62.5,81C 57.7046,83.0331 52.7046,83.8664 47.5,83.5C 47.5,80.8333 47.5,78.1667 47.5,75.5C 47.5,74.8333 47.5,74.1667 47.5,73.5C 50.0379,73.4928 52.5379,73.1595 55,72.5C 56.4343,72.8618 57.6009,73.5285 58.5,74.5C 64.4757,75.2212 69.6424,73.2212 74,68.5C 82.2769,54.3127 82.6102,39.9794 75,25.5C 72.6692,21.9713 69.5025,19.9713 65.5,19.5C 60.3326,15.3661 54.3326,13.3661 47.5,13.5C 47.5,12.8333 47.5,12.1667 47.5,11.5 Z"/></g>
<g><path style="opacity:1" fill="#f6d18d" d="M 65.5,19.5 C 69.5025,19.9713 72.6692,21.9713 75,25.5C 82.6102,39.9794 82.2769,54.3127 74,68.5C 69.6424,73.2212 64.4757,75.2212 58.5,74.5C 65.9376,72.6195 66.2709,70.1195 59.5,67C 61.0779,65.9055 62.7446,65.0722 64.5,64.5C 66.1667,63.8333 67.8333,63.1667 69.5,62.5C 69.7748,64.8418 70.6081,64.8418 72,62.5C 80.8588,46.3914 78.6921,32.0581 65.5,19.5 Z"/></g>
<g><path style="opacity:1" fill="#8f8e9b" d="M 47.5,30.5 C 47.5,36.8333 47.5,43.1667 47.5,49.5C 47.5,49.8333 47.5,50.1667 47.5,50.5C 46.1667,50.5 44.8333,50.5 43.5,50.5C 44.2524,53.0903 45.2524,55.5903 46.5,58C 46.1667,58.8333 45.8333,59.6667 45.5,60.5C 44.2638,59.7542 42.9305,59.4208 41.5,59.5C 41.0632,50.7249 36.3965,45.7249 27.5,44.5C 26.6059,41.2076 26.7726,37.8742 28,34.5C 29.0961,36.8892 29.9294,39.3892 30.5,42C 32.4727,42.4955 34.4727,42.6621 36.5,42.5C 36.3946,38.4517 36.7279,34.4517 37.5,30.5C 36.0222,30.762 34.6888,30.4287 33.5,29.5C 34.5283,27.6385 36.0283,26.3052 38,25.5C 39.1711,27.8422 40.3378,30.1756 41.5,32.5C 43.1727,30.9137 45.1727,30.2471 47.5,30.5 Z"/></g>
<g><path style="opacity:1" fill="#7c7b86" d="M 47.5,20.5 C 47.5,23.8333 47.5,27.1667 47.5,30.5C 45.1727,30.2471 43.1727,30.9137 41.5,32.5C 40.3378,30.1756 39.1711,27.8422 38,25.5C 36.0283,26.3052 34.5283,27.6385 33.5,29.5C 34.6888,30.4287 36.0222,30.762 37.5,30.5C 36.7279,34.4517 36.3946,38.4517 36.5,42.5C 34.4727,42.6621 32.4727,42.4955 30.5,42C 29.9294,39.3892 29.0961,36.8892 28,34.5C 26.7726,37.8742 26.6059,41.2076 27.5,44.5C 36.3965,45.7249 41.0632,50.7249 41.5,59.5C 42.9305,59.4208 44.2638,59.7542 45.5,60.5C 45.8333,59.6667 46.1667,58.8333 46.5,58C 45.2524,55.5903 44.2524,53.0903 43.5,50.5C 44.8333,50.5 46.1667,50.5 47.5,50.5C 47.5,55.5 47.5,60.5 47.5,65.5C 38.3343,65.5 31.501,61.5 27,53.5C 20.4713,43.2249 21.6379,33.7249 30.5,25C 35.6306,20.9486 41.2972,19.4486 47.5,20.5 Z"/></g>
<g><path style="opacity:1" fill="#6f6e79" d="M 47.5,14.5 C 47.5,16.5 47.5,18.5 47.5,20.5C 41.2972,19.4486 35.6306,20.9486 30.5,25C 21.6379,33.7249 20.4713,43.2249 27,53.5C 31.501,61.5 38.3343,65.5 47.5,65.5C 47.5,68.1667 47.5,70.8333 47.5,73.5C 47.5,74.1667 47.5,74.8333 47.5,75.5C 40.7108,75.4046 34.7108,73.2379 29.5,69C 28.2068,68.51 26.8734,68.3433 25.5,68.5C 16.5141,56.576 14.6808,43.576 20,29.5C 23.0461,25.212 26.8794,21.712 31.5,19C 35.1426,19.6852 38.8093,19.5185 42.5,18.5C 42.67,17.1779 42.3366,16.0113 41.5,15C 43.4727,14.5045 45.4727,14.3379 47.5,14.5 Z"/></g>
<g><path style="opacity:1" fill="#fadd9f" d="M 47.5,13.5 C 54.3326,13.3661 60.3326,15.3661 65.5,19.5C 78.6921,32.0581 80.8588,46.3914 72,62.5C 70.6081,64.8418 69.7748,64.8418 69.5,62.5C 80.662,44.2686 76.9953,29.9352 58.5,19.5C 57.1667,20.5 55.8333,21.5 54.5,22.5C 53.4016,21.3845 52.2349,21.3845 51,22.5C 49.6974,22.0217 48.5307,21.355 47.5,20.5C 47.5,18.5 47.5,16.5 47.5,14.5C 47.5,14.1667 47.5,13.8333 47.5,13.5 Z"/></g>
<g><path style="opacity:1" fill="#fcde9b" d="M 64.5,64.5 C 62.7446,65.0722 61.0779,65.9055 59.5,67C 66.2709,70.1195 65.9376,72.6195 58.5,74.5C 57.6009,73.5285 56.4343,72.8618 55,72.5C 52.5379,73.1595 50.0379,73.4928 47.5,73.5C 47.5,70.8333 47.5,68.1667 47.5,65.5C 47.5,60.5 47.5,55.5 47.5,50.5C 47.5,50.1667 47.5,49.8333 47.5,49.5C 49.3841,49.2882 50.7174,48.2882 51.5,46.5C 52.6446,47.7757 52.6446,49.109 51.5,50.5C 52.8613,52.0284 54.028,53.6951 55,55.5C 56.7387,53.7166 58.5721,52.0499 60.5,50.5C 62.7928,51.2357 65.1261,51.4024 67.5,51C 71.8943,55.0197 71.3943,58.1863 66,60.5C 65.2086,61.745 64.7086,63.0783 64.5,64.5 Z"/></g>
<g><path style="opacity:1" fill="#63606c" d="M 47.5,11.5 C 47.5,12.1667 47.5,12.8333 47.5,13.5C 47.5,13.8333 47.5,14.1667 47.5,14.5C 45.4727,14.3379 43.4727,14.5045 41.5,15C 42.3366,16.0113 42.67,17.1779 42.5,18.5C 38.8093,19.5185 35.1426,19.6852 31.5,19C 26.8794,21.712 23.0461,25.212 20,29.5C 14.6808,43.576 16.5141,56.576 25.5,68.5C 23.5648,67.8505 21.5648,67.5172 19.5,67.5C 19.5,68.5 19.5,69.5 19.5,70.5C 15.7278,66.6286 13.2278,61.9619 12,56.5C 8.42124,34.1436 17.2546,19.3103 38.5,12C 41.4816,11.502 44.4816,11.3354 47.5,11.5 Z"/></g>
<g><path style="opacity:1" fill="#514f59" d="M 25.5,68.5 C 26.8734,68.3433 28.2068,68.51 29.5,69C 34.7108,73.2379 40.7108,75.4046 47.5,75.5C 47.5,78.1667 47.5,80.8333 47.5,83.5C 35.8431,84.0029 26.5098,79.6696 19.5,70.5C 19.5,69.5 19.5,68.5 19.5,67.5C 21.5648,67.5172 23.5648,67.8505 25.5,68.5 Z"/></g>
</svg>
