<?xml version="1.0" encoding="UTF-8"?>
<!DOCTYPE svg PUBLIC "-//W3C//DTD SVG 1.1//EN" "http://www.w3.org/Graphics/SVG/1.1/DTD/svg11.dtd">
<svg xmlns="http://www.w3.org/2000/svg" version="1.1" width="96px" height="96px" style="shape-rendering:geometricPrecision; text-rendering:geometricPrecision; image-rendering:optimizeQuality; fill-rule:evenodd; clip-rule:evenodd" xmlns:xlink="http://www.w3.org/1999/xlink">
<g><path style="opacity:1" fill="#f6d28e" d="M 41.5,14.5 C 46.6814,13.3636 52.0147,13.3636 57.5,14.5C 60.47,15.6532 63.1367,17.3199 65.5,19.5C 63.5,19.5 61.5,19.5 59.5,19.5C 56.0915,18.0966 52.4248,17.4299 48.5,17.5C 48.5,16.5 48.5,15.5 48.5,14.5C 46.1667,14.5 43.8333,14.5 41.5,14.5 Z"/></g>
<g><path style="opacity:1" fill="#f3c67d" d="M 57.5,14.5 C 59.1667,14.5 60.8333,14.5 62.5,14.5C 64.3603,15.9387 66.027,17.6053 67.5,19.5C 66.8333,19.5 66.1667,19.5 65.5,19.5C 63.1367,17.3199 60.47,15.6532 57.5,14.5 Z"/></g>
<g><path style="opacity:1" fill="#fcdc99" d="M 41.5,14.5 C 43.8333,14.5 46.1667,14.5 48.5,14.5C 48.5,15.5 48.5,16.5 48.5,17.5C 52.4248,17.4299 56.0915,18.0966 59.5,19.5C 57.6064,20.0476 55.9397,21.0476 54.5,22.5C 53.4016,21.3845 52.2349,21.3845 51,22.5C 49.073,21.139 46.9063,20.3057 44.5,20C 48.8127,16.6507 48.146,15.1507 42.5,15.5C 42.6574,18.344 41.324,20.0107 38.5,20.5C 36.901,20.7678 35.5676,20.4345 34.5,19.5C 37.1398,19.046 39.4732,17.8793 41.5,16C 38.9028,15.2208 38.9028,14.7208 41.5,14.5 Z"/></g>
<g><path style="opacity:1" fill="#fef0bd" d="M 59.5,19.5 C 64.1018,22.4319 68.1018,26.0986 71.5,30.5C 71.9056,34.8636 72.5723,39.1969 73.5,43.5C 72.9804,46.9116 72.1471,50.245 71,53.5C 70.3292,54.2524 69.4959,54.5858 68.5,54.5C 68.5,54.1667 68.5,53.8333 68.5,53.5C 68.5858,52.5041 68.2524,51.6708 67.5,51C 65.1261,51.4024 62.7928,51.2357 60.5,50.5C 58.5721,52.0499 56.7387,53.7166 55,55.5C 54.028,53.6951 52.8613,52.0284 51.5,50.5C 52.6446,49.109 52.6446,47.7757 51.5,46.5C 50.7132,47.2421 50.0465,48.0754 49.5,49C 47.0995,49.1858 44.7662,49.6858 42.5,50.5C 44.6061,53.2685 46.2728,56.2685 47.5,59.5C 46.7437,62.8048 44.9103,64.1382 42,63.5C 43.6,54.4344 40.1,48.2677 31.5,45C 29.1599,44.2516 27.1599,44.7516 25.5,46.5C 22.4355,34.0298 26.7688,25.3631 38.5,20.5C 41.324,20.0107 42.6574,18.344 42.5,15.5C 48.146,15.1507 48.8127,16.6507 44.5,20C 46.9063,20.3057 49.073,21.139 51,22.5C 52.2349,21.3845 53.4016,21.3845 54.5,22.5C 55.9397,21.0476 57.6064,20.0476 59.5,19.5 Z"/></g>
<g><path style="opacity:1" fill="#f3c980" d="M 57.5,14.5 C 52.0147,13.3636 46.6814,13.3636 41.5,14.5C 38.9028,14.7208 38.9028,15.2208 41.5,16C 39.4732,17.8793 37.1398,19.046 34.5,19.5C 34.6678,16.316 33.3345,15.816 30.5,18C 25.6377,21.6972 21.3043,25.8639 17.5,30.5C 23.6894,18.396 33.6894,12.396 47.5,12.5C 51.1411,12.3148 54.4744,12.9814 57.5,14.5 Z"/></g>
<g><path style="opacity:1" fill="#f3c77e" d="M 67.5,19.5 C 71.1667,21.1667 73.8333,23.8333 75.5,27.5C 72.5,25.1667 69.8333,22.5 67.5,19.5 Z"/></g>
<g><path style="opacity:0.941" fill="#f0bc6d" d="M 62.5,14.5 C 79.6924,23.2209 86.5258,37.2209 83,56.5C 82.19,60.7869 80.3567,64.4536 77.5,67.5C 78.1667,64.1667 78.8333,60.8333 79.5,57.5C 79.5,57.1667 79.5,56.8333 79.5,56.5C 80.1499,56.1961 80.8165,55.8627 81.5,55.5C 83.4762,46.9758 82.4762,38.9758 78.5,31.5C 76.7376,30.7377 75.7376,29.4044 75.5,27.5C 73.8333,23.8333 71.1667,21.1667 67.5,19.5C 66.027,17.6053 64.3603,15.9387 62.5,14.5 Z"/></g>
<g><path style="opacity:1" fill="#f8e2a1" d="M 42.5,22.5 C 44.7638,23.2186 47.0971,23.552 49.5,23.5C 49.3297,26.4905 50.663,28.4905 53.5,29.5C 46.6444,39.2269 41.6444,38.2269 38.5,26.5C 40.188,25.4787 41.5213,24.1454 42.5,22.5 Z"/></g>
<g><path style="opacity:1" fill="#fadfa3" d="M 59.5,19.5 C 61.5,19.5 63.5,19.5 65.5,19.5C 78.6921,32.0581 80.8588,46.3914 72,62.5C 70.6081,64.8418 69.7748,64.8418 69.5,62.5C 75.0477,54.7821 76.8811,46.1154 75,36.5C 74.2838,34.1209 73.1172,32.1209 71.5,30.5C 68.1018,26.0986 64.1018,22.4319 59.5,19.5 Z"/></g>
<g><path style="opacity:1" fill="#fbe2a0" d="M 34.5,30.5 C 37.2919,30.4521 39.1253,31.7854 40,34.5C 40.7721,42.2842 37.4387,44.6175 30,41.5C 29.7132,39.1093 29.2132,36.7759 28.5,34.5C 30.3965,32.9833 32.3965,31.6499 34.5,30.5 Z"/></g>
<g><path style="opacity:1" fill="#fdecb6" d="M 33.5,19.5 C 33.8333,19.5 34.1667,19.5 34.5,19.5C 35.5676,20.4345 36.901,20.7678 38.5,20.5C 26.7688,25.3631 22.4355,34.0298 25.5,46.5C 25.1667,47.1667 24.8333,47.8333 24.5,48.5C 23.5987,49.2905 22.9321,50.2905 22.5,51.5C 19.8691,44.9471 20.0358,38.2805 23,31.5C 26.3651,27.3068 29.8651,23.3068 33.5,19.5 Z"/></g>
<g><path style="opacity:1" fill="#fce6ae" d="M 71.5,30.5 C 73.1172,32.1209 74.2838,34.1209 75,36.5C 76.8811,46.1154 75.0477,54.7821 69.5,62.5C 67.8333,63.1667 66.1667,63.8333 64.5,64.5C 64.7086,63.0783 65.2086,61.745 66,60.5C 67.9717,59.6948 69.4717,58.3615 70.5,56.5C 69.7573,55.8182 69.0906,55.1515 68.5,54.5C 69.4959,54.5858 70.3292,54.2524 71,53.5C 72.1471,50.245 72.9804,46.9116 73.5,43.5C 72.5723,39.1969 71.9056,34.8636 71.5,30.5 Z"/></g>
<g><path style="opacity:1" fill="#fbe3a9" d="M 33.5,19.5 C 29.8651,23.3068 26.3651,27.3068 23,31.5C 20.0358,38.2805 19.8691,44.9471 22.5,51.5C 21.8902,52.391 21.5569,53.391 21.5,54.5C 20.7321,53.7375 20.2321,52.7375 20,51.5C 18.5002,42.6708 19.6668,34.3375 23.5,26.5C 25.8336,23.1711 28.8336,20.5044 32.5,18.5C 33.1067,18.6236 33.44,18.9569 33.5,19.5 Z"/></g>
<g><path style="opacity:1" fill="#f7d290" d="M 34.5,19.5 C 34.1667,19.5 33.8333,19.5 33.5,19.5C 33.44,18.9569 33.1067,18.6236 32.5,18.5C 28.8336,20.5044 25.8336,23.1711 23.5,26.5C 18.6311,31.761 16.2977,38.0943 16.5,45.5C 17.0038,54.1695 20.0038,61.8362 25.5,68.5C 24.8333,68.5 24.1667,68.5 23.5,68.5C 23.5,67.8333 23.1667,67.5 22.5,67.5C 20.4721,64.0985 18.4721,60.7651 16.5,57.5C 14.9951,48.4207 15.3284,39.4207 17.5,30.5C 21.3043,25.8639 25.6377,21.6972 30.5,18C 33.3345,15.816 34.6678,16.316 34.5,19.5 Z"/></g>
<g><path style="opacity:1" fill="#f7d28f" d="M 65.5,19.5 C 66.1667,19.5 66.8333,19.5 67.5,19.5C 69.8333,22.5 72.5,25.1667 75.5,27.5C 75.7376,29.4044 76.7376,30.7377 78.5,31.5C 80.5907,39.7681 80.9241,48.1014 79.5,56.5C 79.5,56.8333 79.5,57.1667 79.5,57.5C 78.1224,58.5451 77.1224,59.8784 76.5,61.5C 74.5491,62.7158 73.0491,64.3825 72,66.5C 68.6019,65.6575 66.1019,66.9908 64.5,70.5C 63.3303,68.7215 61.6636,67.7215 59.5,67.5C 60.8993,66.1103 62.5659,65.1103 64.5,64.5C 66.1667,63.8333 67.8333,63.1667 69.5,62.5C 69.7748,64.8418 70.6081,64.8418 72,62.5C 80.8588,46.3914 78.6921,32.0581 65.5,19.5 Z"/></g>
<g><path style="opacity:1" fill="#f2c479" d="M 13.5,39.5 C 13.3343,43.8461 13.501,48.1794 14,52.5C 14.0995,54.6526 14.9328,56.3192 16.5,57.5C 18.4721,60.7651 20.4721,64.0985 22.5,67.5C 20.6096,67.7035 19.1096,67.0368 18,65.5C 12.7016,57.407 11.2016,48.7404 13.5,39.5 Z"/></g>
<g><path style="opacity:1" fill="#f2c479" d="M 78.5,31.5 C 82.4762,38.9758 83.4762,46.9758 81.5,55.5C 80.8165,55.8627 80.1499,56.1961 79.5,56.5C 80.9241,48.1014 80.5907,39.7681 78.5,31.5 Z"/></g>
<g><path style="opacity:1" fill="#fde19f" d="M 68.5,53.5 C 58.7653,66.657 46.7653,68.9903 32.5,60.5C 29.3269,56.8154 26.6602,52.8154 24.5,48.5C 24.8333,47.8333 25.1667,47.1667 25.5,46.5C 27.1599,44.7516 29.1599,44.2516 31.5,45C 40.1,48.2677 43.6,54.4344 42,63.5C 44.9103,64.1382 46.7437,62.8048 47.5,59.5C 46.2728,56.2685 44.6061,53.2685 42.5,50.5C 44.7662,49.6858 47.0995,49.1858 49.5,49C 50.0465,48.0754 50.7132,47.2421 51.5,46.5C 52.6446,47.7757 52.6446,49.109 51.5,50.5C 52.8613,52.0284 54.028,53.6951 55,55.5C 56.7387,53.7166 58.5721,52.0499 60.5,50.5C 62.7928,51.2357 65.1261,51.4024 67.5,51C 68.2524,51.6708 68.5858,52.5041 68.5,53.5 Z"/></g>
<g><path style="opacity:1" fill="#fdde9a" d="M 24.5,48.5 C 26.6602,52.8154 29.3269,56.8154 32.5,60.5C 46.7653,68.9903 58.7653,66.657 68.5,53.5C 68.5,53.8333 68.5,54.1667 68.5,54.5C 69.0906,55.1515 69.7573,55.8182 70.5,56.5C 69.4717,58.3615 67.9717,59.6948 66,60.5C 65.2086,61.745 64.7086,63.0783 64.5,64.5C 62.5659,65.1103 60.8993,66.1103 59.5,67.5C 42.2774,72.9941 29.9441,67.6608 22.5,51.5C 22.9321,50.2905 23.5987,49.2905 24.5,48.5 Z"/></g>
<g><path style="opacity:1" fill="#f9dc9f" d="M 23.5,26.5 C 19.6668,34.3375 18.5002,42.6708 20,51.5C 20.2321,52.7375 20.7321,53.7375 21.5,54.5C 22.9288,57.3084 23.5955,60.3084 23.5,63.5C 25.2915,63.366 26.9582,63.6993 28.5,64.5C 29.1098,65.391 29.4431,66.391 29.5,67.5C 28.791,68.404 27.791,68.7373 26.5,68.5C 26.1667,68.5 25.8333,68.5 25.5,68.5C 20.0038,61.8362 17.0038,54.1695 16.5,45.5C 16.2977,38.0943 18.6311,31.761 23.5,26.5 Z"/></g>
<g><path style="opacity:1" fill="#fad792" d="M 22.5,51.5 C 29.9441,67.6608 42.2774,72.9941 59.5,67.5C 58.8333,68.5 58.1667,69.5 57.5,70.5C 46.769,73.0629 37.1023,71.0629 28.5,64.5C 26.9582,63.6993 25.2915,63.366 23.5,63.5C 23.5955,60.3084 22.9288,57.3084 21.5,54.5C 21.5569,53.391 21.8902,52.391 22.5,51.5 Z"/></g>
<g><path style="opacity:1" fill="#f4ca84" d="M 17.5,30.5 C 15.3284,39.4207 14.9951,48.4207 16.5,57.5C 14.9328,56.3192 14.0995,54.6526 14,52.5C 13.501,48.1794 13.3343,43.8461 13.5,39.5C 14.5881,36.3 15.9215,33.3 17.5,30.5 Z"/></g>
<g><path style="opacity:1" fill="#f5cc86" d="M 76.5,61.5 C 74.3563,70.9257 68.3563,75.5923 58.5,75.5C 58.5,75.1667 58.5,74.8333 58.5,74.5C 60.8816,73.6493 62.8816,72.316 64.5,70.5C 66.1019,66.9908 68.6019,65.6575 72,66.5C 73.0491,64.3825 74.5491,62.7158 76.5,61.5 Z"/></g>
<g><path style="opacity:1" fill="#f7d28a" d="M 28.5,64.5 C 37.1023,71.0629 46.769,73.0629 57.5,70.5C 57.5,71.8333 57.5,73.1667 57.5,74.5C 52.6161,74.399 47.6161,74.2323 42.5,74C 37.5304,72.8487 33.1971,70.6821 29.5,67.5C 29.4431,66.391 29.1098,65.391 28.5,64.5 Z"/></g>
<g><path style="opacity:1" fill="#f9dda0" d="M 59.5,67.5 C 61.6636,67.7215 63.3303,68.7215 64.5,70.5C 62.8816,72.316 60.8816,73.6493 58.5,74.5C 58.1667,74.5 57.8333,74.5 57.5,74.5C 57.5,73.1667 57.5,71.8333 57.5,70.5C 58.1667,69.5 58.8333,68.5 59.5,67.5 Z"/></g>
<g><path style="opacity:1" fill="#f1c77b" d="M 29.5,67.5 C 33.1971,70.6821 37.5304,72.8487 42.5,74C 47.6161,74.2323 52.6161,74.399 57.5,74.5C 57.8333,74.5 58.1667,74.5 58.5,74.5C 58.5,74.8333 58.5,75.1667 58.5,75.5C 46.4409,79.0234 35.7742,76.69 26.5,68.5C 27.791,68.7373 28.791,68.404 29.5,67.5 Z"/></g>
<g><path style="opacity:1" fill="#f3c57b" d="M 79.5,57.5 C 78.8333,60.8333 78.1667,64.1667 77.5,67.5C 77.5,67.8333 77.5,68.1667 77.5,68.5C 74.2515,70.4033 71.2515,72.7366 68.5,75.5C 63.9452,77.6105 59.2785,79.4438 54.5,81C 50.0472,81.8326 47.0472,81.6659 45.5,80.5C 49.79,80.69 53.79,79.69 57.5,77.5C 58.2975,77.0431 58.6309,76.3764 58.5,75.5C 68.3563,75.5923 74.3563,70.9257 76.5,61.5C 77.1224,59.8784 78.1224,58.5451 79.5,57.5 Z"/></g>
<g><path style="opacity:0.973" fill="#e4ac57" d="M 39.5,83.5 C 31.2333,81.5558 24.5666,77.2224 19.5,70.5C 19.4701,69.5028 19.9701,68.8361 21,68.5C 24.9861,71.6524 28.8194,74.9858 32.5,78.5C 35.4501,79.4877 38.4501,80.321 41.5,81C 40.6195,81.7083 39.9528,82.5416 39.5,83.5 Z"/></g>
<g><path style="opacity:0.924" fill="#efba6b" d="M 62.5,14.5 C 60.8333,14.5 59.1667,14.5 57.5,14.5C 54.4744,12.9814 51.1411,12.3148 47.5,12.5C 33.6894,12.396 23.6894,18.396 17.5,30.5C 15.9215,33.3 14.5881,36.3 13.5,39.5C 11.2016,48.7404 12.7016,57.407 18,65.5C 19.1096,67.0368 20.6096,67.7035 22.5,67.5C 23.1667,67.5 23.5,67.8333 23.5,68.5C 25.6038,70.0987 27.6038,71.932 29.5,74C 34.9044,76.2938 40.2377,78.4605 45.5,80.5C 47.0472,81.6659 50.0472,81.8326 54.5,81C 59.2785,79.4438 63.9452,77.6105 68.5,75.5C 71.2515,72.7366 74.2515,70.4033 77.5,68.5C 67.9084,80.9261 55.2418,85.9261 39.5,83.5C 39.9528,82.5416 40.6195,81.7083 41.5,81C 38.4501,80.321 35.4501,79.4877 32.5,78.5C 28.8194,74.9858 24.9861,71.6524 21,68.5C 19.9701,68.8361 19.4701,69.5028 19.5,70.5C 13.6814,64.0489 11.0148,56.3823 11.5,47.5C 11.9409,29.2183 20.9409,17.385 38.5,12C 44.5,11.3333 50.5,11.3333 56.5,12C 58.7226,12.5662 60.7226,13.3995 62.5,14.5 Z"/></g>
<g><path style="opacity:1" fill="#edbe70" d="M 23.5,68.5 C 24.1667,68.5 24.8333,68.5 25.5,68.5C 25.8333,68.5 26.1667,68.5 26.5,68.5C 35.7742,76.69 46.4409,79.0234 58.5,75.5C 58.6309,76.3764 58.2975,77.0431 57.5,77.5C 53.79,79.69 49.79,80.69 45.5,80.5C 40.2377,78.4605 34.9044,76.2938 29.5,74C 27.6038,71.932 25.6038,70.0987 23.5,68.5 Z"/></g>
</svg>
