<?xml version="1.0" encoding="UTF-8"?>
<!DOCTYPE svg PUBLIC "-//W3C//DTD SVG 1.1//EN" "http://www.w3.org/Graphics/SVG/1.1/DTD/svg11.dtd">
<svg xmlns="http://www.w3.org/2000/svg" version="1.1" width="96px" height="96px" style="shape-rendering:geometricPrecision; text-rendering:geometricPrecision; image-rendering:optimizeQuality; fill-rule:evenodd; clip-rule:evenodd" xmlns:xlink="http://www.w3.org/1999/xlink">
<g><path style="opacity:1" fill="#feeeba" d="M 47.5,20.5 C 47.5,30.5 47.5,40.5 47.5,50.5C 45.8546,49.5213 44.5213,48.188 43.5,46.5C 42.3554,47.7757 42.3554,49.109 43.5,50.5C 42.1387,52.0284 40.972,53.6951 40,55.5C 37.8416,54.1741 36.0082,52.5075 34.5,50.5C 32.2072,51.2357 29.8739,51.4024 27.5,51C 23.1057,55.0197 23.6057,58.1863 29,60.5C 29.7914,61.745 30.2914,63.0783 30.5,64.5C 28.6854,63.3702 26.6854,62.7036 24.5,62.5C 23.6481,59.7766 22.4814,57.11 21,54.5C 16.7887,41.6994 19.6221,30.8661 29.5,22C 33.5407,19.1853 37.2074,19.352 40.5,22.5C 43.0279,23.1096 45.3612,22.4429 47.5,20.5 Z"/></g>
<g><path style="opacity:1" fill="#878693" d="M 47.5,61.5 C 47.5,57.8333 47.5,54.1667 47.5,50.5C 47.5,40.5 47.5,30.5 47.5,20.5C 62.59,19.9129 70.9233,27.2463 72.5,42.5C 72.3333,43.8333 72.1667,45.1667 72,46.5C 71.586,46.9574 71.086,47.2907 70.5,47.5C 65.9464,44.1762 62.7797,45.1762 61,50.5C 59.292,52.5435 57.292,54.2101 55,55.5C 54.6676,58.5063 53.8343,61.3396 52.5,64C 50.5646,63.9421 48.8979,63.1088 47.5,61.5 Z"/></g>
<g><path style="opacity:1" fill="#f8d592" d="M 47.5,13.5 C 47.5,13.8333 47.5,14.1667 47.5,14.5C 47.5,16.5 47.5,18.5 47.5,20.5C 45.3612,22.4429 43.0279,23.1096 40.5,22.5C 37.2074,19.352 33.5407,19.1853 29.5,22C 19.6221,30.8661 16.7887,41.6994 21,54.5C 22.4814,57.11 23.6481,59.7766 24.5,62.5C 26.6854,62.7036 28.6854,63.3702 30.5,64.5C 35.5919,67.9736 41.2585,69.6403 47.5,69.5C 47.5,69.8333 47.5,70.1667 47.5,70.5C 47.5,72.1667 47.5,73.8333 47.5,75.5C 44.2719,75.7006 41.1052,75.3672 38,74.5C 36.7387,74.7591 35.7387,75.4258 35,76.5C 30.18,75.0477 25.8467,72.7144 22,69.5C 21.5172,64.7044 19.5172,60.7044 16,57.5C 12.1216,40.4602 17.2883,26.9602 31.5,17C 36.6269,14.8849 41.9602,13.7183 47.5,13.5 Z"/></g>
<g><path style="opacity:1" fill="#fde09e" d="M 47.5,50.5 C 47.5,54.1667 47.5,57.8333 47.5,61.5C 47.5,64.1667 47.5,66.8333 47.5,69.5C 41.2585,69.6403 35.5919,67.9736 30.5,64.5C 30.2914,63.0783 29.7914,61.745 29,60.5C 23.6057,58.1863 23.1057,55.0197 27.5,51C 29.8739,51.4024 32.2072,51.2357 34.5,50.5C 36.0082,52.5075 37.8416,54.1741 40,55.5C 40.972,53.6951 42.1387,52.0284 43.5,50.5C 42.3554,49.109 42.3554,47.7757 43.5,46.5C 44.5213,48.188 45.8546,49.5213 47.5,50.5 Z"/></g>
<g><path style="opacity:1" fill="#73727d" d="M 47.5,14.5 C 49.5273,14.3379 51.5273,14.5045 53.5,15C 52.6634,16.0113 52.33,17.1779 52.5,18.5C 63.7322,18.5366 71.2322,23.87 75,34.5C 77.3185,41.9943 76.9852,49.3276 74,56.5C 73.5814,55.3279 72.9147,54.3279 72,53.5C 67.2303,63.975 59.0636,69.6416 47.5,70.5C 47.5,70.1667 47.5,69.8333 47.5,69.5C 47.5,66.8333 47.5,64.1667 47.5,61.5C 48.8979,63.1088 50.5646,63.9421 52.5,64C 53.8343,61.3396 54.6676,58.5063 55,55.5C 57.292,54.2101 59.292,52.5435 61,50.5C 62.7797,45.1762 65.9464,44.1762 70.5,47.5C 71.086,47.2907 71.586,46.9574 72,46.5C 72.1667,45.1667 72.3333,43.8333 72.5,42.5C 70.9233,27.2463 62.59,19.9129 47.5,20.5C 47.5,18.5 47.5,16.5 47.5,14.5 Z"/></g>
<g><path style="opacity:1" fill="#666570" d="M 47.5,11.5 C 65.7784,11.9369 77.6117,20.9369 83,38.5C 84.6076,48.3051 83.2743,57.6385 79,66.5C 78.0513,68.0931 76.8846,69.4264 75.5,70.5C 75.5,69.5 75.5,68.5 75.5,67.5C 69.4066,67.2789 64.0732,69.1122 59.5,73C 55.586,74.2827 51.586,75.1161 47.5,75.5C 47.5,73.8333 47.5,72.1667 47.5,70.5C 59.0636,69.6416 67.2303,63.975 72,53.5C 72.9147,54.3279 73.5814,55.3279 74,56.5C 76.9852,49.3276 77.3185,41.9943 75,34.5C 71.2322,23.87 63.7322,18.5366 52.5,18.5C 52.33,17.1779 52.6634,16.0113 53.5,15C 51.5273,14.5045 49.5273,14.3379 47.5,14.5C 47.5,14.1667 47.5,13.8333 47.5,13.5C 47.5,12.8333 47.5,12.1667 47.5,11.5 Z"/></g>
<g><path style="opacity:1" fill="#514f58" d="M 75.5,70.5 C 68.4902,79.6696 59.1569,84.0029 47.5,83.5C 47.5,80.8333 47.5,78.1667 47.5,75.5C 51.586,75.1161 55.586,74.2827 59.5,73C 64.0732,69.1122 69.4066,67.2789 75.5,67.5C 75.5,68.5 75.5,69.5 75.5,70.5 Z"/></g>
<g><path style="opacity:1" fill="#f1c175" d="M 47.5,11.5 C 47.5,12.1667 47.5,12.8333 47.5,13.5C 41.9602,13.7183 36.6269,14.8849 31.5,17C 17.2883,26.9602 12.1216,40.4602 16,57.5C 19.5172,60.7044 21.5172,64.7044 22,69.5C 25.8467,72.7144 30.18,75.0477 35,76.5C 35.7387,75.4258 36.7387,74.7591 38,74.5C 41.1052,75.3672 44.2719,75.7006 47.5,75.5C 47.5,78.1667 47.5,80.8333 47.5,83.5C 32.1107,83.2842 20.944,76.2842 14,62.5C 6.99322,41.174 13.1599,25.0073 32.5,14C 37.2954,11.9669 42.2954,11.1336 47.5,11.5 Z"/></g>
</svg>
