<?xml version="1.0" encoding="UTF-8"?>
<!DOCTYPE svg PUBLIC "-//W3C//DTD SVG 1.1//EN" "http://www.w3.org/Graphics/SVG/1.1/DTD/svg11.dtd">
<svg xmlns="http://www.w3.org/2000/svg" version="1.1" width="96px" height="96px" style="shape-rendering:geometricPrecision; text-rendering:geometricPrecision; image-rendering:optimizeQuality; fill-rule:evenodd; clip-rule:evenodd" xmlns:xlink="http://www.w3.org/1999/xlink">
<g><path style="opacity:1" fill="#545463" d="M 66.5,16.5 C 65.8333,16.5 65.5,16.8333 65.5,17.5C 64.5,17.5 63.5,17.5 62.5,17.5C 60.4582,15.1703 57.7916,14.0036 54.5,14C 49.3158,13.1837 44.3158,13.3503 39.5,14.5C 39.9175,15.2216 40.5842,15.7216 41.5,16C 39.2199,16.2326 37.2199,17.066 35.5,18.5C 34.8182,17.7573 34.1515,17.0906 33.5,16.5C 31.8211,16.8923 30.1545,17.3923 28.5,18C 25.9348,20.0795 23.2682,21.9128 20.5,23.5C 30.12,12.795 42.12,8.96171 56.5,12C 60.2292,12.8445 63.5626,14.3445 66.5,16.5 Z"/></g>
<g><path style="opacity:1" fill="#62616e" d="M 39.5,14.5 C 44.3158,13.3503 49.3158,13.1837 54.5,14C 57.7916,14.0036 60.4582,15.1703 62.5,17.5C 61.5,18.1667 60.5,18.8333 59.5,19.5C 55.7329,18.2053 51.7329,17.5387 47.5,17.5C 47.5,17.1667 47.5,16.8333 47.5,16.5C 48.0431,16.44 48.3764,16.1067 48.5,15.5C 45.5719,14.5159 42.5719,14.1826 39.5,14.5 Z"/></g>
<g><path style="opacity:1" fill="#686774" d="M 39.5,14.5 C 42.5719,14.1826 45.5719,14.5159 48.5,15.5C 48.3764,16.1067 48.0431,16.44 47.5,16.5C 45.2188,16.0773 43.5521,16.744 42.5,18.5C 41.1667,19.1667 39.8333,19.8333 38.5,20.5C 36.3093,19.7093 34.3093,19.7093 32.5,20.5C 29.3968,22.4233 26.3968,24.59 23.5,27C 22.1772,27.8159 21.5106,28.9826 21.5,30.5C 20.8333,30.8333 20.1667,31.1667 19.5,31.5C 19.3433,30.1266 19.51,28.7932 20,27.5C 23.7919,22.866 28.2919,19.1994 33.5,16.5C 34.1515,17.0906 34.8182,17.7573 35.5,18.5C 37.2199,17.066 39.2199,16.2326 41.5,16C 40.5842,15.7216 39.9175,15.2216 39.5,14.5 Z"/></g>
<g><path style="opacity:1" fill="#7f7e89" d="M 42.5,18.5 C 44.9935,18.1307 45.6602,18.7973 44.5,20.5C 38.3836,21.9747 33.5503,25.308 30,30.5C 29.4092,31.4835 29.7425,32.1501 31,32.5C 34.7407,30.6877 35.7407,31.3544 34,34.5C 33.5026,37.146 33.3359,39.8127 33.5,42.5C 32.1779,42.67 31.0113,42.3366 30,41.5C 29.8078,39.4233 29.3078,37.4233 28.5,35.5C 27.5159,38.4281 27.1826,41.4281 27.5,44.5C 29.2161,44.6287 30.8828,44.962 32.5,45.5C 39.305,48.2885 42.305,53.2885 41.5,60.5C 43.1667,60.5 44.8333,60.5 46.5,60.5C 46.4451,56.8183 45.4451,53.485 43.5,50.5C 45.7354,50.7947 47.7354,50.4614 49.5,49.5C 51.4559,51.1139 53.4559,52.7806 55.5,54.5C 53.369,55.3138 51.0356,55.8138 48.5,56C 47.7699,58.154 47.1032,60.3206 46.5,62.5C 45.3951,63.6005 44.0618,64.2671 42.5,64.5C 41.3519,62.2576 40.3519,59.9242 39.5,57.5C 34.7396,55.2376 31.5729,51.571 30,46.5C 28.0849,45.0844 26.5849,45.4178 25.5,47.5C 25.1667,47.5 24.8333,47.5 24.5,47.5C 21.5371,34.4229 26.2038,25.4229 38.5,20.5C 39.8333,19.8333 41.1667,19.1667 42.5,18.5 Z"/></g>
<g><path style="opacity:1" fill="#706f79" d="M 47.5,17.5 C 51.7329,17.5387 55.7329,18.2053 59.5,19.5C 57.9731,19.427 56.9731,20.0937 56.5,21.5C 56.1667,21.5 55.8333,21.5 55.5,21.5C 52.3934,20.8764 49.3934,19.8764 46.5,18.5C 46.6236,17.8933 46.9569,17.56 47.5,17.5 Z"/></g>
<g><path style="opacity:1" fill="#7b7a86" d="M 59.5,19.5 C 60.6715,20.3446 62.0048,21.0113 63.5,21.5C 74.4603,31.6329 76.7936,43.2996 70.5,56.5C 69.0582,55.1805 68.3915,53.5138 68.5,51.5C 73.2631,37.8193 69.2631,27.8193 56.5,21.5C 56.9731,20.0937 57.9731,19.427 59.5,19.5 Z"/></g>
<g><path style="opacity:1" fill="#7a7985" d="M 38.5,20.5 C 26.2038,25.4229 21.5371,34.4229 24.5,47.5C 23.8333,48.5 23.1667,49.5 22.5,50.5C 22.5,50.8333 22.5,51.1667 22.5,51.5C 19.4124,43.5954 20.2458,35.9287 25,28.5C 27.705,25.9638 30.205,23.2971 32.5,20.5C 34.3093,19.7093 36.3093,19.7093 38.5,20.5 Z"/></g>
<g><path style="opacity:1" fill="#777680" d="M 47.5,16.5 C 47.5,16.8333 47.5,17.1667 47.5,17.5C 46.9569,17.56 46.6236,17.8933 46.5,18.5C 49.3934,19.8764 52.3934,20.8764 55.5,21.5C 55.5,21.8333 55.5,22.1667 55.5,22.5C 51.6163,22.5762 47.9496,21.9095 44.5,20.5C 45.6602,18.7973 44.9935,18.1307 42.5,18.5C 43.5521,16.744 45.2188,16.0773 47.5,16.5 Z"/></g>
<g><path style="opacity:1" fill="#81808c" d="M 55.5,22.5 C 55.5,22.1667 55.5,21.8333 55.5,21.5C 55.8333,21.5 56.1667,21.5 56.5,21.5C 69.2631,27.8193 73.2631,37.8193 68.5,51.5C 68.1667,51.5 67.8333,51.5 67.5,51.5C 67.1583,50.6618 66.4916,50.3284 65.5,50.5C 69.8945,38.3472 66.5611,29.0139 55.5,22.5 Z"/></g>
<g><path style="opacity:1" fill="#868591" d="M 44.5,20.5 C 47.9496,21.9095 51.6163,22.5762 55.5,22.5C 66.5611,29.0139 69.8945,38.3472 65.5,50.5C 63.5487,51.6414 61.5487,51.6414 59.5,50.5C 66.7136,40.1598 65.047,31.3265 54.5,24C 52.8659,23.5065 51.1992,23.3398 49.5,23.5C 47.4086,23.6816 45.4086,23.3482 43.5,22.5C 41.8333,23.8333 40.1667,25.1667 38.5,26.5C 38.8627,27.1835 39.1961,27.8501 39.5,28.5C 38.2438,28.4614 37.2438,28.9614 36.5,30C 38.0703,31.3968 39.4036,32.8968 40.5,34.5C 40.5,34.8333 40.5,35.1667 40.5,35.5C 40.4828,37.5648 40.1495,39.5648 39.5,41.5C 38.5,42.1667 37.5,42.8333 36.5,43.5C 34.5168,43.1568 33.1834,43.8235 32.5,45.5C 30.8828,44.962 29.2161,44.6287 27.5,44.5C 27.1826,41.4281 27.5159,38.4281 28.5,35.5C 29.3078,37.4233 29.8078,39.4233 30,41.5C 31.0113,42.3366 32.1779,42.67 33.5,42.5C 33.3359,39.8127 33.5026,37.146 34,34.5C 35.7407,31.3544 34.7407,30.6877 31,32.5C 29.7425,32.1501 29.4092,31.4835 30,30.5C 33.5503,25.308 38.3836,21.9747 44.5,20.5 Z"/></g>
<g><path style="opacity:1" fill="#807f8b" d="M 49.5,23.5 C 49.5,24.1667 49.5,24.8333 49.5,25.5C 49.5,26.1667 49.5,26.8333 49.5,27.5C 46.2457,27.2069 43.2457,27.8736 40.5,29.5C 40.5,28.8333 40.1667,28.5 39.5,28.5C 39.1961,27.8501 38.8627,27.1835 38.5,26.5C 40.1667,25.1667 41.8333,23.8333 43.5,22.5C 45.4086,23.3482 47.4086,23.6816 49.5,23.5 Z"/></g>
<g><path style="opacity:1" fill="#8c8b97" d="M 49.5,23.5 C 51.1992,23.3398 52.8659,23.5065 54.5,24C 65.047,31.3265 66.7136,40.1598 59.5,50.5C 58.674,52.2644 57.3407,53.5977 55.5,54.5C 53.4559,52.7806 51.4559,51.1139 49.5,49.5C 50.7802,45.563 52.1135,45.563 53.5,49.5C 60.8326,44.2073 62.3326,37.5406 58,29.5C 55.6095,26.5449 52.7762,25.2116 49.5,25.5C 49.5,24.8333 49.5,24.1667 49.5,23.5 Z"/></g>
<g><path style="opacity:1" fill="#92919f" d="M 49.5,49.5 C 46.2719,49.7006 43.1052,49.3672 40,48.5C 37.8238,47.4843 36.6571,45.8176 36.5,43.5C 37.5,42.8333 38.5,42.1667 39.5,41.5C 44.8737,48.1335 50.3737,48.1335 56,41.5C 58,38.1667 58,34.8333 56,31.5C 55.3292,30.7476 54.4959,30.4142 53.5,30.5C 52.9653,28.5544 51.632,27.5544 49.5,27.5C 49.5,26.8333 49.5,26.1667 49.5,25.5C 52.7762,25.2116 55.6095,26.5449 58,29.5C 62.3326,37.5406 60.8326,44.2073 53.5,49.5C 52.1135,45.563 50.7802,45.563 49.5,49.5 Z"/></g>
<g><path style="opacity:1" fill="#878693" d="M 49.5,27.5 C 51.632,27.5544 52.9653,28.5544 53.5,30.5C 53.1667,30.5 52.8333,30.5 52.5,30.5C 48.6306,29.3764 44.9639,30.043 41.5,32.5C 40.6143,31.675 40.281,30.675 40.5,29.5C 43.2457,27.8736 46.2457,27.2069 49.5,27.5 Z"/></g>
<g><path style="opacity:1" fill="#747380" d="M 63.5,21.5 C 69.7077,24.5569 73.541,29.5569 75,36.5C 77.2779,45.3578 75.9446,53.6912 71,61.5C 69.6976,62.0848 68.531,62.7515 67.5,63.5C 67.1667,63.5 66.8333,63.5 66.5,63.5C 65.596,62.791 65.2627,61.791 65.5,60.5C 67.754,59.8763 69.4206,58.543 70.5,56.5C 76.7936,43.2996 74.4603,31.6329 63.5,21.5 Z"/></g>
<g><path style="opacity:1" fill="#8f8e9b" d="M 39.5,28.5 C 40.1667,28.5 40.5,28.8333 40.5,29.5C 40.281,30.675 40.6143,31.675 41.5,32.5C 44.9639,30.043 48.6306,29.3764 52.5,30.5C 52.5,30.8333 52.5,31.1667 52.5,31.5C 50.4384,33.5639 48.105,35.2305 45.5,36.5C 43.6171,36.1243 42.1171,35.1243 41,33.5C 40.6012,33.7284 40.4346,34.0618 40.5,34.5C 39.4036,32.8968 38.0703,31.3968 36.5,30C 37.2438,28.9614 38.2438,28.4614 39.5,28.5 Z"/></g>
<g><path style="opacity:1" fill="#9897a5" d="M 52.5,31.5 C 52.5,31.1667 52.5,30.8333 52.5,30.5C 52.8333,30.5 53.1667,30.5 53.5,30.5C 54.4959,30.4142 55.3292,30.7476 56,31.5C 58,34.8333 58,38.1667 56,41.5C 50.3737,48.1335 44.8737,48.1335 39.5,41.5C 40.1495,39.5648 40.4828,37.5648 40.5,35.5C 43.1989,42.1423 47.3656,43.1423 53,38.5C 53.7958,35.9615 53.6291,33.6282 52.5,31.5 Z"/></g>
<g><path style="opacity:1" fill="#73727f" d="M 32.5,20.5 C 30.205,23.2971 27.705,25.9638 25,28.5C 20.2458,35.9287 19.4124,43.5954 22.5,51.5C 22.5,51.8333 22.5,52.1667 22.5,52.5C 21.596,53.209 21.2627,54.209 21.5,55.5C 19.4336,52.2452 18.4336,48.5785 18.5,44.5C 18.8748,39.6711 19.8748,35.0044 21.5,30.5C 21.5106,28.9826 22.1772,27.8159 23.5,27C 26.3968,24.59 29.3968,22.4233 32.5,20.5 Z"/></g>
<g><path style="opacity:1" fill="#6d6c7a" d="M 21.5,30.5 C 19.8748,35.0044 18.8748,39.6711 18.5,44.5C 18.4336,48.5785 19.4336,52.2452 21.5,55.5C 22.5375,56.9303 23.2041,58.597 23.5,60.5C 22.603,61.5981 21.7697,61.5981 21,60.5C 17.021,50.9875 16.521,41.3208 19.5,31.5C 20.1667,31.1667 20.8333,30.8333 21.5,30.5 Z"/></g>
<g><path style="opacity:1" fill="#9e9dab" d="M 52.5,31.5 C 53.6291,33.6282 53.7958,35.9615 53,38.5C 47.3656,43.1423 43.1989,42.1423 40.5,35.5C 40.5,35.1667 40.5,34.8333 40.5,34.5C 40.4346,34.0618 40.6012,33.7284 41,33.5C 42.1171,35.1243 43.6171,36.1243 45.5,36.5C 48.105,35.2305 50.4384,33.5639 52.5,31.5 Z"/></g>
<g><path style="opacity:1" fill="#6d6c79" d="M 62.5,17.5 C 66.7978,21.2964 70.9644,25.2964 75,29.5C 76.0086,31.0249 76.5086,32.6916 76.5,34.5C 78.1687,42.6393 77.6687,50.6393 75,58.5C 73.7225,60.7472 72.2225,62.7472 70.5,64.5C 70.1667,64.5 69.8333,64.5 69.5,64.5C 69.1583,63.6618 68.4916,63.3284 67.5,63.5C 68.531,62.7515 69.6976,62.0848 71,61.5C 75.9446,53.6912 77.2779,45.3578 75,36.5C 73.541,29.5569 69.7077,24.5569 63.5,21.5C 62.0048,21.0113 60.6715,20.3446 59.5,19.5C 60.5,18.8333 61.5,18.1667 62.5,17.5 Z"/></g>
<g><path style="opacity:0.725" fill="#504f5f" d="M 65.5,17.5 C 65.5,16.8333 65.8333,16.5 66.5,16.5C 82.4477,27.6758 87.4477,42.6758 81.5,61.5C 80.291,59.5654 80.4577,57.5654 82,55.5C 82.6667,50.1667 82.6667,44.8333 82,39.5C 81.5762,36.9746 80.4095,34.9746 78.5,33.5C 76.4003,26.3957 72.067,21.0624 65.5,17.5 Z"/></g>
<g><path style="opacity:1" fill="#8a8996" d="M 36.5,43.5 C 36.6571,45.8176 37.8238,47.4843 40,48.5C 43.1052,49.3672 46.2719,49.7006 49.5,49.5C 47.7354,50.4614 45.7354,50.7947 43.5,50.5C 45.4451,53.485 46.4451,56.8183 46.5,60.5C 44.8333,60.5 43.1667,60.5 41.5,60.5C 42.305,53.2885 39.305,48.2885 32.5,45.5C 33.1834,43.8235 34.5168,43.1568 36.5,43.5 Z"/></g>
<g><path style="opacity:1" fill="#75747f" d="M 42.5,64.5 C 33.1762,62.5095 27.5095,56.8429 25.5,47.5C 26.5849,45.4178 28.0849,45.0844 30,46.5C 31.5729,51.571 34.7396,55.2376 39.5,57.5C 40.3519,59.9242 41.3519,62.2576 42.5,64.5 Z"/></g>
<g><path style="opacity:1" fill="#72717b" d="M 24.5,47.5 C 24.8333,47.5 25.1667,47.5 25.5,47.5C 27.5095,56.8429 33.1762,62.5095 42.5,64.5C 44.0618,64.2671 45.3951,63.6005 46.5,62.5C 50.747,62.8222 54.747,61.9889 58.5,60C 62.0266,57.6378 65.0266,54.8045 67.5,51.5C 67.8333,51.5 68.1667,51.5 68.5,51.5C 68.3915,53.5138 69.0582,55.1805 70.5,56.5C 69.4206,58.543 67.754,59.8763 65.5,60.5C 55.8289,69.5688 45.1622,70.7355 33.5,64C 29.1939,59.8079 25.5272,55.3079 22.5,50.5C 23.1667,49.5 23.8333,48.5 24.5,47.5 Z"/></g>
<g><path style="opacity:1" fill="#676675" d="M 76.5,34.5 C 77.2679,35.2625 77.7679,36.2625 78,37.5C 79.9928,47.9948 78.1594,57.6614 72.5,66.5C 72.1667,66.5 71.8333,66.5 71.5,66.5C 71.1667,65.8333 70.8333,65.1667 70.5,64.5C 72.2225,62.7472 73.7225,60.7472 75,58.5C 77.6687,50.6393 78.1687,42.6393 76.5,34.5 Z"/></g>
<g><path style="opacity:1" fill="#676675" d="M 19.5,31.5 C 16.521,41.3208 17.021,50.9875 21,60.5C 21.7697,61.5981 22.603,61.5981 23.5,60.5C 23.5,61.5 23.5,62.5 23.5,63.5C 25.8583,63.2525 27.8583,63.9192 29.5,65.5C 29.4431,66.609 29.1098,67.609 28.5,68.5C 27.8333,68.5 27.1667,68.5 26.5,68.5C 26.1667,68.5 25.8333,68.5 25.5,68.5C 16.4227,59.7452 13.256,49.0785 16,36.5C 17.1889,34.7669 18.3556,33.1002 19.5,31.5 Z"/></g>
<g><path style="opacity:1" fill="#6e6d78" d="M 22.5,50.5 C 25.5272,55.3079 29.1939,59.8079 33.5,64C 45.1622,70.7355 55.8289,69.5688 65.5,60.5C 65.2627,61.791 65.596,62.791 66.5,63.5C 64.6181,64.7512 62.6181,65.9179 60.5,67C 64.5652,69.6739 64.0652,71.5072 59,72.5C 58.2352,72.4301 57.7352,72.0967 57.5,71.5C 57.6309,70.6236 57.2975,69.9569 56.5,69.5C 45.2205,72.8837 35.7205,70.217 28,61.5C 26.0618,58.4485 24.2284,55.4485 22.5,52.5C 22.5,52.1667 22.5,51.8333 22.5,51.5C 22.5,51.1667 22.5,50.8333 22.5,50.5 Z"/></g>
<g><path style="opacity:1" fill="#797882" d="M 59.5,50.5 C 61.5487,51.6414 63.5487,51.6414 65.5,50.5C 66.4916,50.3284 67.1583,50.6618 67.5,51.5C 65.0266,54.8045 62.0266,57.6378 58.5,60C 54.747,61.9889 50.747,62.8222 46.5,62.5C 47.1032,60.3206 47.7699,58.154 48.5,56C 51.0356,55.8138 53.369,55.3138 55.5,54.5C 57.3407,53.5977 58.674,52.2644 59.5,50.5 Z"/></g>
<g><path style="opacity:0.648" fill="#504f60" d="M 20.5,23.5 C 18.6259,27.9398 16.4592,32.2731 14,36.5C 11.7572,47.9295 13.9239,58.2629 20.5,67.5C 20.5,67.8333 20.5,68.1667 20.5,68.5C 19.6618,68.8417 19.3284,69.5084 19.5,70.5C 13.6814,64.0489 11.0148,56.3823 11.5,47.5C 10.977,38.0564 13.977,30.0564 20.5,23.5 Z"/></g>
<g><path style="opacity:1" fill="#605f6e" d="M 62.5,17.5 C 63.5,17.5 64.5,17.5 65.5,17.5C 72.067,21.0624 76.4003,26.3957 78.5,33.5C 80.0473,40.065 80.714,46.7316 80.5,53.5C 78.7321,56.6057 77.2321,59.9391 76,63.5C 74.9609,64.7101 73.7942,65.7101 72.5,66.5C 78.1594,57.6614 79.9928,47.9948 78,37.5C 77.7679,36.2625 77.2679,35.2625 76.5,34.5C 76.5086,32.6916 76.0086,31.0249 75,29.5C 70.9644,25.2964 66.7978,21.2964 62.5,17.5 Z"/></g>
<g><path style="opacity:1" fill="#5c5b6a" d="M 33.5,16.5 C 28.2919,19.1994 23.7919,22.866 20,27.5C 19.51,28.7932 19.3433,30.1266 19.5,31.5C 18.3556,33.1002 17.1889,34.7669 16,36.5C 13.256,49.0785 16.4227,59.7452 25.5,68.5C 23.8828,67.962 22.2161,67.6287 20.5,67.5C 13.9239,58.2629 11.7572,47.9295 14,36.5C 16.4592,32.2731 18.6259,27.9398 20.5,23.5C 23.2682,21.9128 25.9348,20.0795 28.5,18C 30.1545,17.3923 31.8211,16.8923 33.5,16.5 Z"/></g>
<g><path style="opacity:1" fill="#686772" d="M 22.5,52.5 C 24.2284,55.4485 26.0618,58.4485 28,61.5C 35.7205,70.217 45.2205,72.8837 56.5,69.5C 57.2975,69.9569 57.6309,70.6236 57.5,71.5C 50.799,72.9964 44.1323,72.8297 37.5,71C 34.2788,69.896 31.6122,68.0626 29.5,65.5C 27.8583,63.9192 25.8583,63.2525 23.5,63.5C 23.5,62.5 23.5,61.5 23.5,60.5C 23.2041,58.597 22.5375,56.9303 21.5,55.5C 21.2627,54.209 21.596,53.209 22.5,52.5 Z"/></g>
<g><path style="opacity:1" fill="#5c5b6a" d="M 80.5,53.5 C 77.2827,67.8851 68.4494,76.8851 54,80.5C 53.2352,80.4301 52.7352,80.0967 52.5,79.5C 53.609,79.4431 54.609,79.1098 55.5,78.5C 57.1898,78.1436 58.1898,77.1436 58.5,75.5C 61.7191,74.9307 64.0525,73.264 65.5,70.5C 68.2921,70.3775 70.2921,69.0442 71.5,66.5C 71.8333,66.5 72.1667,66.5 72.5,66.5C 73.7942,65.7101 74.9609,64.7101 76,63.5C 77.2321,59.9391 78.7321,56.6057 80.5,53.5 Z"/></g>
<g><path style="opacity:1" fill="#5c5b66" d="M 69.5,64.5 C 69.8333,64.5 70.1667,64.5 70.5,64.5C 70.8333,65.1667 71.1667,65.8333 71.5,66.5C 70.2921,69.0442 68.2921,70.3775 65.5,70.5C 64.9569,70.44 64.6236,70.1067 64.5,69.5C 66.4014,67.9937 68.0681,66.3271 69.5,64.5 Z"/></g>
<g><path style="opacity:1" fill="#5a5965" d="M 26.5,68.5 C 27.1667,68.5 27.8333,68.5 28.5,68.5C 32.9607,71.726 37.9607,73.8927 43.5,75C 48.6836,75.0094 53.6836,75.176 58.5,75.5C 46.4991,78.4956 35.8324,76.1622 26.5,68.5 Z"/></g>
<g><path style="opacity:1" fill="#63626d" d="M 66.5,63.5 C 66.8333,63.5 67.1667,63.5 67.5,63.5C 68.4916,63.3284 69.1583,63.6618 69.5,64.5C 68.0681,66.3271 66.4014,67.9937 64.5,69.5C 64.6236,70.1067 64.9569,70.44 65.5,70.5C 64.0525,73.264 61.7191,74.9307 58.5,75.5C 53.6836,75.176 48.6836,75.0094 43.5,75C 37.9607,73.8927 32.9607,71.726 28.5,68.5C 29.1098,67.609 29.4431,66.609 29.5,65.5C 31.6122,68.0626 34.2788,69.896 37.5,71C 44.1323,72.8297 50.799,72.9964 57.5,71.5C 57.7352,72.0967 58.2352,72.4301 59,72.5C 64.0652,71.5072 64.5652,69.6739 60.5,67C 62.6181,65.9179 64.6181,64.7512 66.5,63.5 Z"/></g>
<g><path style="opacity:1" fill="#474651" d="M 21.5,69.5 C 24.967,69.4457 27.6337,70.9457 29.5,74C 30.745,74.7914 32.0783,75.2914 33.5,75.5C 34.0577,76.7899 35.0577,77.6232 36.5,78C 39.678,78.6595 42.678,79.4928 45.5,80.5C 44.8333,80.5 44.1667,80.5 43.5,80.5C 42.8333,80.8333 42.1667,81.1667 41.5,81.5C 37.1429,81.299 33.4763,79.4656 30.5,76C 26.5306,75.2003 23.5306,73.0336 21.5,69.5 Z"/></g>
<g><path style="opacity:1" fill="#54535e" d="M 20.5,68.5 C 20.5,68.1667 20.5,67.8333 20.5,67.5C 22.2161,67.6287 23.8828,67.962 25.5,68.5C 25.8333,68.5 26.1667,68.5 26.5,68.5C 35.8324,76.1622 46.4991,78.4956 58.5,75.5C 58.1898,77.1436 57.1898,78.1436 55.5,78.5C 53.1902,77.6564 50.6902,77.6564 48,78.5C 43.0817,77.8165 38.2484,76.8165 33.5,75.5C 32.0783,75.2914 30.745,74.7914 29.5,74C 27.6337,70.9457 24.967,69.4457 21.5,69.5C 21.5,68.8333 21.1667,68.5 20.5,68.5 Z"/></g>
<g><path style="opacity:1" fill="#4e4d59" d="M 33.5,75.5 C 38.2484,76.8165 43.0817,77.8165 48,78.5C 50.6902,77.6564 53.1902,77.6564 55.5,78.5C 54.609,79.1098 53.609,79.4431 52.5,79.5C 50.283,80.3686 47.9496,80.702 45.5,80.5C 42.678,79.4928 39.678,78.6595 36.5,78C 35.0577,77.6232 34.0577,76.7899 33.5,75.5 Z"/></g>
<g><path style="opacity:1" fill="#555464" d="M 78.5,33.5 C 80.4095,34.9746 81.5762,36.9746 82,39.5C 82.6667,44.8333 82.6667,50.1667 82,55.5C 80.4577,57.5654 80.291,59.5654 81.5,61.5C 80.6493,63.8816 79.316,65.8816 77.5,67.5C 72.2987,73.4481 65.9654,77.9481 58.5,81C 53.3158,81.8163 48.3158,81.6497 43.5,80.5C 44.1667,80.5 44.8333,80.5 45.5,80.5C 47.9496,80.702 50.283,80.3686 52.5,79.5C 52.7352,80.0967 53.2352,80.4301 54,80.5C 68.4494,76.8851 77.2827,67.8851 80.5,53.5C 80.714,46.7316 80.0473,40.065 78.5,33.5 Z"/></g>
<g><path style="opacity:0.975" fill="#3e3d49" d="M 20.5,68.5 C 21.1667,68.5 21.5,68.8333 21.5,69.5C 23.5306,73.0336 26.5306,75.2003 30.5,76C 33.4763,79.4656 37.1429,81.299 41.5,81.5C 40.391,81.5569 39.391,81.8902 38.5,82.5C 30.608,80.9365 24.2747,76.9365 19.5,70.5C 19.3284,69.5084 19.6618,68.8417 20.5,68.5 Z"/></g>
<g><path style="opacity:1" fill="#504f5f" d="M 77.5,67.5 C 72.7428,75.5605 65.7428,80.7271 56.5,83C 50.3188,83.8192 44.3188,83.6525 38.5,82.5C 39.391,81.8902 40.391,81.5569 41.5,81.5C 42.1667,81.1667 42.8333,80.8333 43.5,80.5C 48.3158,81.6497 53.3158,81.8163 58.5,81C 65.9654,77.9481 72.2987,73.4481 77.5,67.5 Z"/></g>
</svg>
