<?xml version="1.0" encoding="UTF-8"?>
<!DOCTYPE svg PUBLIC "-//W3C//DTD SVG 1.1//EN" "http://www.w3.org/Graphics/SVG/1.1/DTD/svg11.dtd">
<svg xmlns="http://www.w3.org/2000/svg" version="1.1" width="96px" height="96px" style="shape-rendering:geometricPrecision; text-rendering:geometricPrecision; image-rendering:optimizeQuality; fill-rule:evenodd; clip-rule:evenodd" xmlns:xlink="http://www.w3.org/1999/xlink">
<g><path style="opacity:1" fill="#fdefbd" d="M 55.5,19.5 C 55.8333,19.5 56.1667,19.5 56.5,19.5C 56.8333,20.1667 57.1667,20.8333 57.5,21.5C 62.662,30.8229 64.662,40.8229 63.5,51.5C 63.1667,51.5 62.8333,51.5 62.5,51.5C 59.6302,51.4047 57.1302,52.738 55,55.5C 54.028,53.6951 52.8613,52.0284 51.5,50.5C 52.6446,49.109 52.6446,47.7757 51.5,46.5C 50.7132,47.2421 50.0465,48.0754 49.5,49C 47.0995,49.1858 44.7662,49.6858 42.5,50.5C 44.6061,53.2685 46.2728,56.2685 47.5,59.5C 46.7437,62.8048 44.9103,64.1382 42,63.5C 43.068,56.597 40.9014,51.097 35.5,47C 29.2651,42.8118 24.9317,44.3118 22.5,51.5C 19.8691,44.9471 20.0358,38.2805 23,31.5C 26.3651,27.3068 29.8651,23.3068 33.5,19.5C 38.217,21.5819 41.217,20.2485 42.5,15.5C 48.146,15.1507 48.8127,16.6507 44.5,20C 46.9063,20.3057 49.073,21.139 51,22.5C 52.2349,21.3845 53.4016,21.3845 54.5,22.5C 55.3857,21.675 55.719,20.675 55.5,19.5 Z"/></g>
<g><path style="opacity:1" fill="#797783" d="M 56.5,19.5 C 65.0383,20.5155 70.8716,25.1822 74,33.5C 78.2119,44.2915 76.5452,53.9582 69,62.5C 67.7147,62.9504 66.548,63.6171 65.5,64.5C 64.914,64.2907 64.414,63.9574 64,63.5C 62.9609,64.7101 61.7942,65.7101 60.5,66.5C 61.9026,61.6133 62.5693,56.6133 62.5,51.5C 62.8333,51.5 63.1667,51.5 63.5,51.5C 63.3505,52.552 63.5172,53.552 64,54.5C 65.3239,52.5 66.9905,50.8334 69,49.5C 72.2792,37.157 68.4458,27.8237 57.5,21.5C 57.1667,20.8333 56.8333,20.1667 56.5,19.5 Z"/></g>
<g><path style="opacity:1" fill="#83828e" d="M 57.5,21.5 C 68.4458,27.8237 72.2792,37.157 69,49.5C 66.9905,50.8334 65.3239,52.5 64,54.5C 63.5172,53.552 63.3505,52.552 63.5,51.5C 64.662,40.8229 62.662,30.8229 57.5,21.5 Z"/></g>
<g><path style="opacity:1" fill="#f8e2a1" d="M 42.5,22.5 C 44.7638,23.2186 47.0971,23.552 49.5,23.5C 49.3297,26.4905 50.663,28.4905 53.5,29.5C 46.6444,39.2269 41.6444,38.2269 38.5,26.5C 40.188,25.4787 41.5213,24.1454 42.5,22.5 Z"/></g>
<g><path style="opacity:0.925" fill="#edb96a" d="M 47.5,11.5 C 21.4565,15.6042 10.6232,30.6042 15,56.5C 16.1045,59.417 17.1045,62.417 18,65.5C 20.1937,67.1778 22.6937,68.1778 25.5,68.5C 25.8333,68.5 26.1667,68.5 26.5,68.5C 34.3023,76.2085 43.6356,78.8751 54.5,76.5C 53.1897,79.4732 51.1897,81.8065 48.5,83.5C 32.5919,83.7613 21.0919,76.7613 14,62.5C 6.99322,41.174 13.1599,25.0073 32.5,14C 37.2954,11.9669 42.2954,11.1336 47.5,11.5 Z"/></g>
<g><path style="opacity:1" fill="#fbe2a0" d="M 34.5,30.5 C 40.342,32.1995 41.842,35.8662 39,41.5C 36.0747,44.0594 33.0747,44.0594 30,41.5C 29.7132,39.1093 29.2132,36.7759 28.5,34.5C 30.3965,32.9833 32.3965,31.6499 34.5,30.5 Z"/></g>
<g><path style="opacity:1" fill="#f9dda1" d="M 33.5,19.5 C 29.8651,23.3068 26.3651,27.3068 23,31.5C 20.0358,38.2805 19.8691,44.9471 22.5,51.5C 22.0183,52.4163 21.685,53.4163 21.5,54.5C 22.9322,57.3273 23.5988,60.3273 23.5,63.5C 25.2915,63.366 26.9582,63.6993 28.5,64.5C 29.2341,65.7079 29.5674,67.0413 29.5,68.5C 28.5,68.5 27.5,68.5 26.5,68.5C 26.1667,68.5 25.8333,68.5 25.5,68.5C 12.6723,51.6254 13.6723,35.7921 28.5,21C 29.9663,20.3645 31.2997,19.5312 32.5,18.5C 33.1067,18.6236 33.44,18.9569 33.5,19.5 Z"/></g>
<g><path style="opacity:1" fill="#6a6875" d="M 48.5,11.5 C 52.4885,11.1164 56.1552,11.783 59.5,13.5C 59.4142,14.4959 59.7476,15.3292 60.5,16C 67.1909,18.1952 72.1909,22.3619 75.5,28.5C 81.7513,41.9037 80.5846,54.5704 72,66.5C 70.9505,65.4829 69.7839,65.3162 68.5,66C 65.4558,68.4015 63.4558,71.0681 62.5,74C 60.5273,74.4955 58.5273,74.6621 56.5,74.5C 56.8333,73.8333 57.1667,73.1667 57.5,72.5C 58.8698,70.7496 59.8698,68.7496 60.5,66.5C 61.7942,65.7101 62.9609,64.7101 64,63.5C 64.414,63.9574 64.914,64.2907 65.5,64.5C 66.548,63.6171 67.7147,62.9504 69,62.5C 76.5452,53.9582 78.2119,44.2915 74,33.5C 70.8716,25.1822 65.0383,20.5155 56.5,19.5C 56.1667,19.5 55.8333,19.5 55.5,19.5C 53.8536,16.1898 51.5203,13.5232 48.5,11.5 Z"/></g>
<g><path style="opacity:1" fill="#f6d08b" d="M 47.5,11.5 C 47.8333,11.5 48.1667,11.5 48.5,11.5C 51.5203,13.5232 53.8536,16.1898 55.5,19.5C 55.719,20.675 55.3857,21.675 54.5,22.5C 53.4016,21.3845 52.2349,21.3845 51,22.5C 49.073,21.139 46.9063,20.3057 44.5,20C 48.8127,16.6507 48.146,15.1507 42.5,15.5C 41.217,20.2485 38.217,21.5819 33.5,19.5C 33.44,18.9569 33.1067,18.6236 32.5,18.5C 31.2997,19.5312 29.9663,20.3645 28.5,21C 13.6723,35.7921 12.6723,51.6254 25.5,68.5C 22.6937,68.1778 20.1937,67.1778 18,65.5C 17.1045,62.417 16.1045,59.417 15,56.5C 10.6232,30.6042 21.4565,15.6042 47.5,11.5 Z"/></g>
<g><path style="opacity:1" fill="#fce09d" d="M 62.5,51.5 C 62.5693,56.6133 61.9026,61.6133 60.5,66.5C 59.8698,68.7496 58.8698,70.7496 57.5,72.5C 57.38,71.4138 56.7133,70.7472 55.5,70.5C 45.4579,72.7372 36.4579,70.7372 28.5,64.5C 26.9582,63.6993 25.2915,63.366 23.5,63.5C 23.5988,60.3273 22.9322,57.3273 21.5,54.5C 21.685,53.4163 22.0183,52.4163 22.5,51.5C 24.9317,44.3118 29.2651,42.8118 35.5,47C 40.9014,51.097 43.068,56.597 42,63.5C 44.9103,64.1382 46.7437,62.8048 47.5,59.5C 46.2728,56.2685 44.6061,53.2685 42.5,50.5C 44.7662,49.6858 47.0995,49.1858 49.5,49C 50.0465,48.0754 50.7132,47.2421 51.5,46.5C 52.6446,47.7757 52.6446,49.109 51.5,50.5C 52.8613,52.0284 54.028,53.6951 55,55.5C 57.1302,52.738 59.6302,51.4047 62.5,51.5 Z"/></g>
<g><path style="opacity:1" fill="#f5ce86" d="M 28.5,64.5 C 36.4579,70.7372 45.4579,72.7372 55.5,70.5C 56.7133,70.7472 57.38,71.4138 57.5,72.5C 57.1667,73.1667 56.8333,73.8333 56.5,74.5C 56.1667,75.5 55.5,76.1667 54.5,76.5C 43.6356,78.8751 34.3023,76.2085 26.5,68.5C 27.5,68.5 28.5,68.5 29.5,68.5C 29.5674,67.0413 29.2341,65.7079 28.5,64.5 Z"/></g>
<g><path style="opacity:1" fill="#5f5b66" d="M 59.5,13.5 C 78.7542,21.3266 86.5876,35.6599 83,56.5C 77.7528,73.589 66.2528,82.589 48.5,83.5C 51.1897,81.8065 53.1897,79.4732 54.5,76.5C 55.5,76.1667 56.1667,75.5 56.5,74.5C 58.5273,74.6621 60.5273,74.4955 62.5,74C 63.4558,71.0681 65.4558,68.4015 68.5,66C 69.7839,65.3162 70.9505,65.4829 72,66.5C 80.5846,54.5704 81.7513,41.9037 75.5,28.5C 72.1909,22.3619 67.1909,18.1952 60.5,16C 59.7476,15.3292 59.4142,14.4959 59.5,13.5 Z"/></g>
</svg>
