<?xml version="1.0" encoding="UTF-8"?>
<!DOCTYPE svg PUBLIC "-//W3C//DTD SVG 1.1//EN" "http://www.w3.org/Graphics/SVG/1.1/DTD/svg11.dtd">
<svg xmlns="http://www.w3.org/2000/svg" version="1.1" width="96px" height="96px" style="shape-rendering:geometricPrecision; text-rendering:geometricPrecision; image-rendering:optimizeQuality; fill-rule:evenodd; clip-rule:evenodd" xmlns:xlink="http://www.w3.org/1999/xlink">
<g><path style="opacity:0.996" fill="#caa16a" d="M 46.5,11.5 C 46.1667,12.5 45.5,13.1667 44.5,13.5C 41.6727,12.6317 38.6727,12.6317 35.5,13.5C 38.8448,11.783 42.5115,11.1164 46.5,11.5 Z"/></g>
<g><path style="opacity:1" fill="#797884" d="M 44.5,13.5 C 45.7175,14.1614 47.0508,14.8281 48.5,15.5C 48.2907,16.086 47.9574,16.586 47.5,17C 53.2156,17.3358 58.5489,18.8358 63.5,21.5C 74.252,31.4282 76.752,43.0949 71,56.5C 69.955,55.6266 69.1217,54.6266 68.5,53.5C 68.5,52.8333 68.5,52.1667 68.5,51.5C 73.167,38.1294 69.3337,28.1294 57,21.5C 55.5378,21.9938 54.0378,22.3272 52.5,22.5C 48.3991,20.7257 44.0657,19.7257 39.5,19.5C 40.7007,17.0905 42.3674,15.0905 44.5,13.5 Z"/></g>
<g><path style="opacity:1" fill="#fdecb7" d="M 34.5,20.5 C 35.5,20.5 36.5,20.5 37.5,20.5C 36.8333,22.5 36.1667,24.5 35.5,26.5C 34.4625,27.9303 33.7959,29.597 33.5,31.5C 32.7255,35.814 32.0588,40.1474 31.5,44.5C 27.0828,44.9077 24.0828,47.241 22.5,51.5C 20.9666,49.3655 20.2999,46.8655 20.5,44C 20.7745,39.4009 21.6078,34.9009 23,30.5C 26.3786,26.6199 30.2119,23.2866 34.5,20.5 Z"/></g>
<g><path style="opacity:1" fill="#84838f" d="M 39.5,19.5 C 44.0657,19.7257 48.3991,20.7257 52.5,22.5C 54.0378,22.3272 55.5378,21.9938 57,21.5C 69.3337,28.1294 73.167,38.1294 68.5,51.5C 65.5353,51.3526 62.5353,51.0193 59.5,50.5C 66.7136,40.1598 65.047,31.3265 54.5,24C 53.6667,23.8333 52.8333,23.6667 52,23.5C 50.6244,23.6842 49.7911,24.3509 49.5,25.5C 46.9825,27.1052 44.1491,28.4385 41,29.5C 39.6152,28.4495 38.6152,27.1161 38,25.5C 37.1618,26.999 36.3285,27.3324 35.5,26.5C 36.1667,24.5 36.8333,22.5 37.5,20.5C 38.1667,20.1667 38.8333,19.8333 39.5,19.5 Z"/></g>
<g><path style="opacity:1" fill="#8c8b97" d="M 59.5,50.5 C 58.674,52.2644 57.3407,53.5977 55.5,54.5C 53.4559,52.7806 51.4559,51.1139 49.5,49.5C 50.7802,45.563 52.1135,45.563 53.5,49.5C 60.8326,44.2073 62.3326,37.5406 58,29.5C 55.6095,26.5449 52.7762,25.2116 49.5,25.5C 49.7911,24.3509 50.6244,23.6842 52,23.5C 52.8333,23.6667 53.6667,23.8333 54.5,24C 65.047,31.3265 66.7136,40.1598 59.5,50.5 Z"/></g>
<g><path style="opacity:1" fill="#91909d" d="M 49.5,49.5 C 45.6065,49.8902 41.9398,49.2235 38.5,47.5C 35.8615,45.0672 36.1948,43.0672 39.5,41.5C 44.8737,48.1335 50.3737,48.1335 56,41.5C 58.3181,37.1336 57.6514,33.4669 54,30.5C 51.5515,31.9443 49.3848,33.7776 47.5,36C 44.6917,36.9201 42.5251,36.0867 41,33.5C 40.6012,33.7284 40.4346,34.0618 40.5,34.5C 39.1129,31.0843 36.7796,30.0843 33.5,31.5C 33.7959,29.597 34.4625,27.9303 35.5,26.5C 36.3285,27.3324 37.1618,26.999 38,25.5C 38.6152,27.1161 39.6152,28.4495 41,29.5C 44.1491,28.4385 46.9825,27.1052 49.5,25.5C 52.7762,25.2116 55.6095,26.5449 58,29.5C 62.3326,37.5406 60.8326,44.2073 53.5,49.5C 52.1135,45.563 50.7802,45.563 49.5,49.5 Z"/></g>
<g><path style="opacity:1" fill="#f6d390" d="M 44.5,13.5 C 42.3674,15.0905 40.7007,17.0905 39.5,19.5C 38.8333,19.8333 38.1667,20.1667 37.5,20.5C 36.5,20.5 35.5,20.5 34.5,20.5C 33.7494,19.4265 32.7494,19.2599 31.5,20C 26.2624,23.7356 21.929,28.2356 18.5,33.5C 21.9742,25.0215 27.6408,18.3549 35.5,13.5C 38.6727,12.6317 41.6727,12.6317 44.5,13.5 Z"/></g>
<g><path style="opacity:1" fill="#9b9aa9" d="M 39.5,41.5 C 40.2186,39.2362 40.552,36.9029 40.5,34.5C 40.4346,34.0618 40.6012,33.7284 41,33.5C 42.5251,36.0867 44.6917,36.9201 47.5,36C 49.3848,33.7776 51.5515,31.9443 54,30.5C 57.6514,33.4669 58.3181,37.1336 56,41.5C 50.3737,48.1335 44.8737,48.1335 39.5,41.5 Z"/></g>
<g><path style="opacity:1" fill="#696875" d="M 46.5,11.5 C 46.8333,11.5 47.1667,11.5 47.5,11.5C 51.3144,12.8838 55.3144,14.0505 59.5,15C 60.5707,15.8518 61.5707,16.6851 62.5,17.5C 66.7978,21.2964 70.9644,25.2964 75,29.5C 80.4766,42.4168 79.4766,54.7501 72,66.5C 71.2917,65.6195 70.4584,64.9528 69.5,64.5C 69.1583,63.6618 68.4916,63.3284 67.5,63.5C 70.7988,61.9818 72.9655,59.3151 74,55.5C 77.775,45.6945 76.775,36.3612 71,27.5C 68.8943,24.8823 66.3943,22.8823 63.5,21.5C 58.5489,18.8358 53.2156,17.3358 47.5,17C 47.9574,16.586 48.2907,16.086 48.5,15.5C 47.0508,14.8281 45.7175,14.1614 44.5,13.5C 45.5,13.1667 46.1667,12.5 46.5,11.5 Z"/></g>
<g><path style="opacity:1" fill="#fadea2" d="M 34.5,20.5 C 30.2119,23.2866 26.3786,26.6199 23,30.5C 21.6078,34.9009 20.7745,39.4009 20.5,44C 20.2999,46.8655 20.9666,49.3655 22.5,51.5C 22.0183,52.4163 21.685,53.4163 21.5,54.5C 22.9322,57.3273 23.5988,60.3273 23.5,63.5C 26.8784,62.8911 28.8784,64.2244 29.5,67.5C 28.4324,68.4345 27.099,68.7678 25.5,68.5C 24.8913,66.0567 23.3913,64.39 21,63.5C 20.413,59.0721 19.413,54.7387 18,50.5C 17.5314,44.8185 17.6981,39.1518 18.5,33.5C 21.929,28.2356 26.2624,23.7356 31.5,20C 32.7494,19.2599 33.7494,19.4265 34.5,20.5 Z"/></g>
<g><path style="opacity:1" fill="#edc17a" d="M 35.5,13.5 C 27.6408,18.3549 21.9742,25.0215 18.5,33.5C 14.6477,39.4895 13.481,46.1562 15,53.5C 15.9114,59.1082 18.4114,63.7749 22.5,67.5C 21.5,67.5 20.5,67.5 19.5,67.5C 13.5453,58.8946 11.212,49.2279 12.5,38.5C 15.6656,26.0019 23.3323,17.6686 35.5,13.5 Z"/></g>
<g><path style="opacity:1" fill="#888792" d="M 40.5,34.5 C 40.552,36.9029 40.2186,39.2362 39.5,41.5C 36.1948,43.0672 35.8615,45.0672 38.5,47.5C 41.9398,49.2235 45.6065,49.8902 49.5,49.5C 47.7354,50.4614 45.7354,50.7947 43.5,50.5C 45.4451,53.485 46.4451,56.8183 46.5,60.5C 44.8333,60.5 43.1667,60.5 41.5,60.5C 42.3646,53.505 39.5313,48.505 33,45.5C 32.5034,47.8098 32.3367,50.1432 32.5,52.5C 32.5,52.8333 32.5,53.1667 32.5,53.5C 31.5233,50.7131 31.19,47.7131 31.5,44.5C 32.0588,40.1474 32.7255,35.814 33.5,31.5C 36.7796,30.0843 39.1129,31.0843 40.5,34.5 Z"/></g>
<g><path style="opacity:1" fill="#fbdc99" d="M 31.5,44.5 C 31.19,47.7131 31.5233,50.7131 32.5,53.5C 32.4299,57.4248 33.0966,61.0915 34.5,64.5C 34.4021,66.5529 35.0687,68.2196 36.5,69.5C 36.5,70.1667 36.5,70.8333 36.5,71.5C 35.448,71.6495 34.448,71.4828 33.5,71C 32.8971,68.9286 31.5638,67.7619 29.5,67.5C 28.8784,64.2244 26.8784,62.8911 23.5,63.5C 23.5988,60.3273 22.9322,57.3273 21.5,54.5C 21.685,53.4163 22.0183,52.4163 22.5,51.5C 24.0828,47.241 27.0828,44.9077 31.5,44.5 Z"/></g>
<g><path style="opacity:1" fill="#767580" d="M 59.5,50.5 C 62.5353,51.0193 65.5353,51.3526 68.5,51.5C 68.5,52.1667 68.5,52.8333 68.5,53.5C 62.276,63.2866 53.6094,66.9532 42.5,64.5C 46.5493,63.1922 48.5493,60.3589 48.5,56C 51.0356,55.8138 53.369,55.3138 55.5,54.5C 57.3407,53.5977 58.674,52.2644 59.5,50.5 Z"/></g>
<g><path style="opacity:1" fill="#73727d" d="M 63.5,21.5 C 66.3943,22.8823 68.8943,24.8823 71,27.5C 76.775,36.3612 77.775,45.6945 74,55.5C 72.9655,59.3151 70.7988,61.9818 67.5,63.5C 67.1667,63.5 66.8333,63.5 66.5,63.5C 65.7321,62.7375 65.2321,61.7375 65,60.5C 55.6794,68.4617 45.6794,69.4617 35,63.5C 34.6012,63.7284 34.4346,64.0618 34.5,64.5C 33.0966,61.0915 32.4299,57.4248 32.5,53.5C 32.5,53.1667 32.5,52.8333 32.5,52.5C 34.5366,54.5296 36.8699,56.1963 39.5,57.5C 40.3519,59.9242 41.3519,62.2576 42.5,64.5C 53.6094,66.9532 62.276,63.2866 68.5,53.5C 69.1217,54.6266 69.955,55.6266 71,56.5C 76.752,43.0949 74.252,31.4282 63.5,21.5 Z"/></g>
<g><path style="opacity:1" fill="#d2a76b" d="M 12.5,38.5 C 11.212,49.2279 13.5453,58.8946 19.5,67.5C 19.5,68.5 19.5,69.5 19.5,70.5C 15.7278,66.6286 13.2278,61.9619 12,56.5C 11.1808,50.3188 11.3475,44.3188 12.5,38.5 Z"/></g>
<g><path style="opacity:1" fill="#7f7e89" d="M 49.5,49.5 C 51.4559,51.1139 53.4559,52.7806 55.5,54.5C 53.369,55.3138 51.0356,55.8138 48.5,56C 48.5493,60.3589 46.5493,63.1922 42.5,64.5C 41.3519,62.2576 40.3519,59.9242 39.5,57.5C 36.8699,56.1963 34.5366,54.5296 32.5,52.5C 32.3367,50.1432 32.5034,47.8098 33,45.5C 39.5313,48.505 42.3646,53.505 41.5,60.5C 43.1667,60.5 44.8333,60.5 46.5,60.5C 46.4451,56.8183 45.4451,53.485 43.5,50.5C 45.7354,50.7947 47.7354,50.4614 49.5,49.5 Z"/></g>
<g><path style="opacity:1" fill="#f6d18e" d="M 18.5,33.5 C 17.6981,39.1518 17.5314,44.8185 18,50.5C 19.413,54.7387 20.413,59.0721 21,63.5C 23.3913,64.39 24.8913,66.0567 25.5,68.5C 24.8333,68.5 24.1667,68.5 23.5,68.5C 23.5,67.8333 23.1667,67.5 22.5,67.5C 18.4114,63.7749 15.9114,59.1082 15,53.5C 13.481,46.1562 14.6477,39.4895 18.5,33.5 Z"/></g>
<g><path style="opacity:1" fill="#6f6e78" d="M 66.5,63.5 C 64.6181,64.7512 62.6181,65.9179 60.5,67C 61.8333,67.6667 62.8333,68.6667 63.5,70C 61.8421,71.6625 59.8421,72.4959 57.5,72.5C 57.719,71.325 57.3857,70.325 56.5,69.5C 49.5144,70.6584 42.8477,70.6584 36.5,69.5C 35.0687,68.2196 34.4021,66.5529 34.5,64.5C 34.4346,64.0618 34.6012,63.7284 35,63.5C 45.6794,69.4617 55.6794,68.4617 65,60.5C 65.2321,61.7375 65.7321,62.7375 66.5,63.5 Z"/></g>
<g><path style="opacity:1" fill="#5d5c6b" d="M 62.5,17.5 C 69.9735,19.4672 75.1402,24.1338 78,31.5C 86.219,56.0599 78.219,72.3932 54,80.5C 53.5,80.3333 53,80.1667 52.5,80C 55.1767,79.1864 57.1767,77.6864 58.5,75.5C 60.7567,75.0383 62.7567,74.0383 64.5,72.5C 65.5896,71.6086 65.5896,70.6086 64.5,69.5C 66.4014,67.9937 68.0681,66.3271 69.5,64.5C 70.4584,64.9528 71.2917,65.6195 72,66.5C 79.4766,54.7501 80.4766,42.4168 75,29.5C 70.9644,25.2964 66.7978,21.2964 62.5,17.5 Z"/></g>
<g><path style="opacity:1" fill="#e1ad5f" d="M 19.5,67.5 C 20.5,67.5 21.5,67.5 22.5,67.5C 23.1667,67.5 23.5,67.8333 23.5,68.5C 28.899,73.7681 35.2324,77.4348 42.5,79.5C 44.1667,80.5 45.5,81.8333 46.5,83.5C 35.2437,83.7043 26.2437,79.371 19.5,70.5C 19.5,69.5 19.5,68.5 19.5,67.5 Z"/></g>
<g><path style="opacity:1" fill="#ecbf74" d="M 29.5,67.5 C 31.5638,67.7619 32.8971,68.9286 33.5,71C 34.448,71.4828 35.448,71.6495 36.5,71.5C 37.5,72.8333 38.5,74.1667 39.5,75.5C 40.5,76.8333 41.5,78.1667 42.5,79.5C 35.2324,77.4348 28.899,73.7681 23.5,68.5C 24.1667,68.5 24.8333,68.5 25.5,68.5C 27.099,68.7678 28.4324,68.4345 29.5,67.5 Z"/></g>
<g><path style="opacity:1" fill="#64636e" d="M 66.5,63.5 C 66.8333,63.5 67.1667,63.5 67.5,63.5C 68.4916,63.3284 69.1583,63.6618 69.5,64.5C 68.0681,66.3271 66.4014,67.9937 64.5,69.5C 65.5896,70.6086 65.5896,71.6086 64.5,72.5C 62.7567,74.0383 60.7567,75.0383 58.5,75.5C 52.1667,74.1667 45.8333,74.1667 39.5,75.5C 38.5,74.1667 37.5,72.8333 36.5,71.5C 36.5,70.8333 36.5,70.1667 36.5,69.5C 42.8477,70.6584 49.5144,70.6584 56.5,69.5C 57.3857,70.325 57.719,71.325 57.5,72.5C 59.8421,72.4959 61.8421,71.6625 63.5,70C 62.8333,68.6667 61.8333,67.6667 60.5,67C 62.6181,65.9179 64.6181,64.7512 66.5,63.5 Z"/></g>
<g><path style="opacity:1" fill="#535261" d="M 47.5,11.5 C 62.8893,11.7158 74.056,18.7158 81,32.5C 88.4638,57.0702 80.2971,73.9035 56.5,83C 53.1832,83.4983 49.8499,83.665 46.5,83.5C 45.5,81.8333 44.1667,80.5 42.5,79.5C 41.5,78.1667 40.5,76.8333 39.5,75.5C 45.8333,74.1667 52.1667,74.1667 58.5,75.5C 57.1767,77.6864 55.1767,79.1864 52.5,80C 53,80.1667 53.5,80.3333 54,80.5C 78.219,72.3932 86.219,56.0599 78,31.5C 75.1402,24.1338 69.9735,19.4672 62.5,17.5C 61.5707,16.6851 60.5707,15.8518 59.5,15C 55.3144,14.0505 51.3144,12.8838 47.5,11.5 Z"/></g>
</svg>
