<?xml version="1.0" encoding="UTF-8"?>
<!DOCTYPE svg PUBLIC "-//W3C//DTD SVG 1.1//EN" "http://www.w3.org/Graphics/SVG/1.1/DTD/svg11.dtd">
<svg xmlns="http://www.w3.org/2000/svg" version="1.1" width="96px" height="96px" style="shape-rendering:geometricPrecision; text-rendering:geometricPrecision; image-rendering:optimizeQuality; fill-rule:evenodd; clip-rule:evenodd" xmlns:xlink="http://www.w3.org/1999/xlink">
<g><path style="opacity:1" fill="#e2b876" d="M 51.5,11.5 C 59.9855,11.911 66.9855,15.2443 72.5,21.5C 71.1266,21.6567 69.7932,21.49 68.5,21C 64.1533,17.3274 59.1533,14.9941 53.5,14C 52.244,13.5831 51.5774,12.7498 51.5,11.5 Z"/></g>
<g><path style="opacity:1" fill="#feefbd" d="M 67.5,22.5 C 69.9183,27.6785 72.085,33.0118 74,38.5C 75.1508,45.1785 74.1508,51.5118 71,57.5C 69.4702,55.7738 68.4702,53.7738 68,51.5C 67.4387,50.9781 66.772,50.6448 66,50.5C 64.1444,51.7357 62.3111,51.7357 60.5,50.5C 58.5721,52.0499 56.7387,53.7166 55,55.5C 54.028,53.6951 52.8613,52.0284 51.5,50.5C 52.6446,49.109 52.6446,47.7757 51.5,46.5C 48.9715,48.6642 45.9715,49.9975 42.5,50.5C 44.6061,53.2685 46.2728,56.2685 47.5,59.5C 46.7437,62.8048 44.9103,64.1382 42,63.5C 43.6859,54.3749 40.1859,48.3749 31.5,45.5C 31.5,44.5 31.5,43.5 31.5,42.5C 36.832,44.6873 39.832,42.854 40.5,37C 40.1669,32.1335 37.8335,30.3002 33.5,31.5C 34.555,27.7251 35.8883,24.0584 37.5,20.5C 38.1667,20.1667 38.8333,19.8333 39.5,19.5C 41.4873,18.041 43.654,16.7077 46,15.5C 46.5,15.8333 47,16.1667 47.5,16.5C 46.6872,17.8139 45.6872,18.9805 44.5,20C 46.9063,20.3057 49.073,21.139 51,22.5C 52.2349,21.3845 53.4016,21.3845 54.5,22.5C 56.0632,20.5984 58.0632,19.5984 60.5,19.5C 63.046,20.0567 65.3793,21.0567 67.5,22.5 Z"/></g>
<g><path style="opacity:1" fill="#7f7e89" d="M 37.5,20.5 C 35.8883,24.0584 34.555,27.7251 33.5,31.5C 32.0832,34.9981 31.4165,38.6648 31.5,42.5C 31.5,43.5 31.5,44.5 31.5,45.5C 31.2834,50.2303 31.6167,54.8969 32.5,59.5C 28.7617,56.374 26.2617,52.374 25,47.5C 23.6152,48.5505 22.6152,49.8839 22,51.5C 19.4264,43.3994 20.4264,35.7327 25,28.5C 27.6833,25.9841 30.1833,23.3174 32.5,20.5C 34.0948,19.5661 35.7615,19.5661 37.5,20.5 Z"/></g>
<g><path style="opacity:1" fill="#f8e2a1" d="M 42.5,22.5 C 44.7638,23.2186 47.0971,23.552 49.5,23.5C 49.3297,26.4905 50.663,28.4905 53.5,29.5C 46.6444,39.2269 41.6444,38.2269 38.5,26.5C 40.188,25.4787 41.5213,24.1454 42.5,22.5 Z"/></g>
<g><path style="opacity:1" fill="#f7e0a1" d="M 31.5,42.5 C 31.4165,38.6648 32.0832,34.9981 33.5,31.5C 37.8335,30.3002 40.1669,32.1335 40.5,37C 39.832,42.854 36.832,44.6873 31.5,42.5 Z"/></g>
<g><path style="opacity:1" fill="#6b6a76" d="M 39.5,18.5 C 39.5,18.8333 39.5,19.1667 39.5,19.5C 38.8333,19.8333 38.1667,20.1667 37.5,20.5C 35.7615,19.5661 34.0948,19.5661 32.5,20.5C 30.1833,23.3174 27.6833,25.9841 25,28.5C 20.4264,35.7327 19.4264,43.3994 22,51.5C 22.6152,49.8839 23.6152,48.5505 25,47.5C 26.2617,52.374 28.7617,56.374 32.5,59.5C 32.9281,62.7846 33.9281,65.7846 35.5,68.5C 35.5569,69.609 35.8902,70.609 36.5,71.5C 30.5779,70.2246 25.4112,67.5579 21,63.5C 19.4205,60.0061 17.5872,56.6728 15.5,53.5C 13.5263,40.6805 17.193,29.8472 26.5,21C 29.4695,20.2375 31.9695,18.7375 34,16.5C 35.4007,18.1922 37.2341,18.8588 39.5,18.5 Z"/></g>
<g><path style="opacity:1" fill="#fcdf9e" d="M 67.5,22.5 C 73.0891,24.9932 76.2557,29.3265 77,35.5C 78.2476,43.808 77.2476,51.808 74,59.5C 71.3252,61.4461 68.4919,63.1127 65.5,64.5C 64.914,64.2907 64.414,63.9574 64,63.5C 55.2365,70.0842 45.9032,71.0842 36,66.5C 35.5357,67.0944 35.369,67.7611 35.5,68.5C 33.9281,65.7846 32.9281,62.7846 32.5,59.5C 31.6167,54.8969 31.2834,50.2303 31.5,45.5C 40.1859,48.3749 43.6859,54.3749 42,63.5C 44.9103,64.1382 46.7437,62.8048 47.5,59.5C 46.2728,56.2685 44.6061,53.2685 42.5,50.5C 45.9715,49.9975 48.9715,48.6642 51.5,46.5C 52.6446,47.7757 52.6446,49.109 51.5,50.5C 52.8613,52.0284 54.028,53.6951 55,55.5C 56.7387,53.7166 58.5721,52.0499 60.5,50.5C 62.3111,51.7357 64.1444,51.7357 66,50.5C 66.772,50.6448 67.4387,50.9781 68,51.5C 68.4702,53.7738 69.4702,55.7738 71,57.5C 74.1508,51.5118 75.1508,45.1785 74,38.5C 72.085,33.0118 69.9183,27.6785 67.5,22.5 Z"/></g>
<g><path style="opacity:1" fill="#575665" d="M 46.5,11.5 C 43.8605,13.4728 41.5272,15.8061 39.5,18.5C 37.2341,18.8588 35.4007,18.1922 34,16.5C 31.9695,18.7375 29.4695,20.2375 26.5,21C 17.193,29.8472 13.5263,40.6805 15.5,53.5C 17.5872,56.6728 19.4205,60.0061 21,63.5C 25.4112,67.5579 30.5779,70.2246 36.5,71.5C 36.5,72.1667 36.8333,72.5 37.5,72.5C 37.7329,74.0618 38.3995,75.3951 39.5,76.5C 33.7051,76.7123 29.0384,74.5456 25.5,70C 23.7818,69.654 22.1151,69.154 20.5,68.5C 19.7025,68.9569 19.3691,69.6236 19.5,70.5C 15.7278,66.6286 13.2278,61.9619 12,56.5C 8.42124,34.1436 17.2546,19.3103 38.5,12C 41.146,11.5026 43.8127,11.3359 46.5,11.5 Z"/></g>
<g><path style="opacity:1" fill="#e5b873" d="M 74.5,23.5 C 78.8517,27.5255 81.685,32.5255 83,38.5C 86.458,57.7483 79.6246,71.9149 62.5,81C 58.9855,82.5617 55.3189,83.395 51.5,83.5C 55.8521,80.809 60.5188,78.4757 65.5,76.5C 68.069,72.4228 71.2357,68.7561 75,65.5C 75.7914,64.255 76.2914,62.9217 76.5,61.5C 78.5113,59.333 79.6779,56.6663 80,53.5C 80.6667,47.8333 80.6667,42.1667 80,36.5C 77.7109,32.3209 75.8775,27.9875 74.5,23.5 Z"/></g>
<g><path style="opacity:1" fill="#f8d692" d="M 46.5,11.5 C 48.1667,11.5 49.8333,11.5 51.5,11.5C 51.5774,12.7498 52.244,13.5831 53.5,14C 59.1533,14.9941 64.1533,17.3274 68.5,21C 69.7932,21.49 71.1266,21.6567 72.5,21.5C 73.5,21.8333 74.1667,22.5 74.5,23.5C 75.8775,27.9875 77.7109,32.3209 80,36.5C 80.6667,42.1667 80.6667,47.8333 80,53.5C 79.6779,56.6663 78.5113,59.333 76.5,61.5C 74.5491,62.7158 73.0491,64.3825 72,66.5C 68.4365,64.3276 65.6032,65.3276 63.5,69.5C 63.7093,70.086 64.0426,70.586 64.5,71C 62.6641,72.419 60.6641,73.5857 58.5,74.5C 57.8333,73.5 57.1667,72.5 56.5,71.5C 50.5,74.1667 44.5,74.1667 38.5,71.5C 37.8933,71.6236 37.56,71.9569 37.5,72.5C 36.8333,72.5 36.5,72.1667 36.5,71.5C 35.8902,70.609 35.5569,69.609 35.5,68.5C 35.369,67.7611 35.5357,67.0944 36,66.5C 45.9032,71.0842 55.2365,70.0842 64,63.5C 64.414,63.9574 64.914,64.2907 65.5,64.5C 68.4919,63.1127 71.3252,61.4461 74,59.5C 77.2476,51.808 78.2476,43.808 77,35.5C 76.2557,29.3265 73.0891,24.9932 67.5,22.5C 65.3793,21.0567 63.046,20.0567 60.5,19.5C 58.0632,19.5984 56.0632,20.5984 54.5,22.5C 53.4016,21.3845 52.2349,21.3845 51,22.5C 49.073,21.139 46.9063,20.3057 44.5,20C 45.6872,18.9805 46.6872,17.8139 47.5,16.5C 47,16.1667 46.5,15.8333 46,15.5C 43.654,16.7077 41.4873,18.041 39.5,19.5C 39.5,19.1667 39.5,18.8333 39.5,18.5C 41.5272,15.8061 43.8605,13.4728 46.5,11.5 Z"/></g>
<g><path style="opacity:0.991" fill="#43424d" d="M 39.5,76.5 C 41.5272,79.1939 43.8605,81.5272 46.5,83.5C 35.2437,83.7043 26.2437,79.371 19.5,70.5C 19.3691,69.6236 19.7025,68.9569 20.5,68.5C 22.1151,69.154 23.7818,69.654 25.5,70C 29.0384,74.5456 33.7051,76.7123 39.5,76.5 Z"/></g>
<g><path style="opacity:1" fill="#f0c47a" d="M 76.5,61.5 C 76.2914,62.9217 75.7914,64.255 75,65.5C 71.2357,68.7561 68.069,72.4228 65.5,76.5C 60.5188,78.4757 55.8521,80.809 51.5,83.5C 49.8333,83.5 48.1667,83.5 46.5,83.5C 43.8605,81.5272 41.5272,79.1939 39.5,76.5C 38.3995,75.3951 37.7329,74.0618 37.5,72.5C 37.56,71.9569 37.8933,71.6236 38.5,71.5C 44.5,74.1667 50.5,74.1667 56.5,71.5C 57.1667,72.5 57.8333,73.5 58.5,74.5C 60.6641,73.5857 62.6641,72.419 64.5,71C 64.0426,70.586 63.7093,70.086 63.5,69.5C 65.6032,65.3276 68.4365,64.3276 72,66.5C 73.0491,64.3825 74.5491,62.7158 76.5,61.5 Z"/></g>
</svg>
