<?xml version="1.0" encoding="UTF-8"?>
<!DOCTYPE svg PUBLIC "-//W3C//DTD SVG 1.1//EN" "http://www.w3.org/Graphics/SVG/1.1/DTD/svg11.dtd">
<svg xmlns="http://www.w3.org/2000/svg" version="1.1" width="96px" height="96px" style="shape-rendering:geometricPrecision; text-rendering:geometricPrecision; image-rendering:optimizeQuality; fill-rule:evenodd; clip-rule:evenodd" xmlns:xlink="http://www.w3.org/1999/xlink">
<g><path style="opacity:1" fill="#d7ae71" d="M 48.5,11.5 C 57.0127,11.2236 64.346,13.8903 70.5,19.5C 65.9916,17.5509 61.3249,15.7175 56.5,14C 54.8659,13.5065 53.1992,13.3398 51.5,13.5C 49.9731,13.573 48.9731,12.9063 48.5,11.5 Z"/></g>
<g><path style="opacity:1" fill="#7c7b87" d="M 54.5,18.5 C 55.1667,18.5 55.5,18.8333 55.5,19.5C 55.5,20.5 55.5,21.5 55.5,22.5C 44.5214,18.7154 35.8547,21.7154 29.5,31.5C 31.4132,32.0512 33.4132,32.2179 35.5,32C 33.7375,35.2432 33.0708,38.7432 33.5,42.5C 32.1779,42.67 31.0113,42.3366 30,41.5C 29.8078,39.4233 29.3078,37.4233 28.5,35.5C 27.5159,38.4281 27.1826,41.4281 27.5,44.5C 36.8905,45.8808 41.5572,51.2141 41.5,60.5C 43.1667,60.5 44.8333,60.5 46.5,60.5C 46.4451,56.8183 45.4451,53.485 43.5,50.5C 45.7354,50.7947 47.7354,50.4614 49.5,49.5C 49.4148,48.0047 50.0815,47.0047 51.5,46.5C 52.7472,48.0064 52.7472,49.5064 51.5,51C 54.5807,55.4964 57.5807,55.3297 60.5,50.5C 61.1835,50.8627 61.8501,51.1961 62.5,51.5C 62.8064,54.3854 62.4731,57.0521 61.5,59.5C 61.44,58.9569 61.1067,58.6236 60.5,58.5C 59.2997,59.5312 57.9663,60.3645 56.5,61C 51.9847,61.7629 47.6514,62.9296 43.5,64.5C 41.4384,62.6397 40.1051,60.3064 39.5,57.5C 34.5751,55.0735 31.2418,51.2402 29.5,46C 25.984,46.1495 23.484,47.9828 22,51.5C 19.4264,43.3994 20.4264,35.7327 25,28.5C 27.705,25.9638 30.205,23.2971 32.5,20.5C 34.6382,20.0617 36.9715,19.8951 39.5,20C 41.8633,19.4115 42.8633,17.9115 42.5,15.5C 44.1667,15.5 45.8333,15.5 47.5,15.5C 47.5,16.5 47.5,17.5 47.5,18.5C 49.8333,18.5 52.1667,18.5 54.5,18.5 Z"/></g>
<g><path style="opacity:1" fill="#868591" d="M 55.5,22.5 C 53.7354,23.4614 51.7354,23.7947 49.5,23.5C 49.238,24.9778 49.5713,26.3112 50.5,27.5C 52.2131,27.8793 53.2131,28.8793 53.5,30.5C 49.2822,29.213 45.2822,29.8797 41.5,32.5C 40.5713,31.3112 40.238,29.9778 40.5,28.5C 38.8967,28.3118 37.5634,28.8118 36.5,30C 40.3532,33.102 41.3532,36.9354 39.5,41.5C 36.1948,43.0672 35.8615,45.0672 38.5,47.5C 41.9398,49.2235 45.6065,49.8902 49.5,49.5C 47.7354,50.4614 45.7354,50.7947 43.5,50.5C 45.4451,53.485 46.4451,56.8183 46.5,60.5C 44.8333,60.5 43.1667,60.5 41.5,60.5C 41.5572,51.2141 36.8905,45.8808 27.5,44.5C 27.1826,41.4281 27.5159,38.4281 28.5,35.5C 29.3078,37.4233 29.8078,39.4233 30,41.5C 31.0113,42.3366 32.1779,42.67 33.5,42.5C 33.0708,38.7432 33.7375,35.2432 35.5,32C 33.4132,32.2179 31.4132,32.0512 29.5,31.5C 35.8547,21.7154 44.5214,18.7154 55.5,22.5 Z"/></g>
<g><path style="opacity:1" fill="#fdedb8" d="M 56.5,19.5 C 58.8568,19.3367 61.1902,19.5034 63.5,20C 64.7893,21.8022 66.4559,22.9688 68.5,23.5C 69.3431,26.5162 70.8431,29.1829 73,31.5C 76.8254,42.273 75.9921,52.6064 70.5,62.5C 68.5165,62.3832 66.8498,63.0499 65.5,64.5C 65.1667,64.1667 64.8333,63.8333 64.5,63.5C 66.0096,60.7455 68.0096,58.4121 70.5,56.5C 69.102,54.8697 68.102,53.0363 67.5,51C 66.0715,50.4209 64.7382,50.5876 63.5,51.5C 64.6332,40.0369 62.2998,29.3703 56.5,19.5 Z"/></g>
<g><path style="opacity:1" fill="#91909d" d="M 55.5,19.5 C 55.8333,19.5 56.1667,19.5 56.5,19.5C 62.2998,29.3703 64.6332,40.0369 63.5,51.5C 63.1667,51.5 62.8333,51.5 62.5,51.5C 61.8501,51.1961 61.1835,50.8627 60.5,50.5C 57.5807,55.3297 54.5807,55.4964 51.5,51C 52.7472,49.5064 52.7472,48.0064 51.5,46.5C 50.0815,47.0047 49.4148,48.0047 49.5,49.5C 45.6065,49.8902 41.9398,49.2235 38.5,47.5C 35.8615,45.0672 36.1948,43.0672 39.5,41.5C 44.8737,48.1335 50.3737,48.1335 56,41.5C 58,38.1667 58,34.8333 56,31.5C 55.3292,30.7476 54.4959,30.4142 53.5,30.5C 53.2131,28.8793 52.2131,27.8793 50.5,27.5C 49.5713,26.3112 49.238,24.9778 49.5,23.5C 51.7354,23.7947 53.7354,23.4614 55.5,22.5C 55.5,21.5 55.5,20.5 55.5,19.5 Z"/></g>
<g><path style="opacity:1" fill="#ebc07b" d="M 51.5,13.5 C 53.1992,13.3398 54.8659,13.5065 56.5,14C 61.3249,15.7175 65.9916,17.5509 70.5,19.5C 83.7373,31.2612 87.2373,45.5945 81,62.5C 74.2874,75.9363 63.454,82.9363 48.5,83.5C 51.2848,81.2894 53.6181,78.6227 55.5,75.5C 56.1667,75.5 56.5,75.1667 56.5,74.5C 57.1667,74.5 57.8333,74.5 58.5,74.5C 59.3143,76.2726 60.6476,76.7726 62.5,76C 66.5,73 70.5,70 74.5,67C 75.0305,63.1034 76.5305,59.6034 79,56.5C 82.1618,46.7362 80.6618,38.0695 74.5,30.5C 73.5336,27.2057 71.5336,24.8724 68.5,23.5C 66.4559,22.9688 64.7893,21.8022 63.5,20C 61.1902,19.5034 58.8568,19.3367 56.5,19.5C 56.1667,19.5 55.8333,19.5 55.5,19.5C 55.5,18.8333 55.1667,18.5 54.5,18.5C 53.7515,16.6675 52.7515,15.0009 51.5,13.5 Z"/></g>
<g><path style="opacity:1" fill="#9796a4" d="M 53.5,30.5 C 54.4959,30.4142 55.3292,30.7476 56,31.5C 58,34.8333 58,38.1667 56,41.5C 50.3737,48.1335 44.8737,48.1335 39.5,41.5C 41.3532,36.9354 40.3532,33.102 36.5,30C 37.5634,28.8118 38.8967,28.3118 40.5,28.5C 40.238,29.9778 40.5713,31.3112 41.5,32.5C 45.2822,29.8797 49.2822,29.213 53.5,30.5 Z"/></g>
<g><path style="opacity:1" fill="#6a6876" d="M 47.5,11.5 C 47.8333,11.5 48.1667,11.5 48.5,11.5C 48.9731,12.9063 49.9731,13.573 51.5,13.5C 52.7515,15.0009 53.7515,16.6675 54.5,18.5C 52.1667,18.5 49.8333,18.5 47.5,18.5C 47.5,17.5 47.5,16.5 47.5,15.5C 45.8333,15.5 44.1667,15.5 42.5,15.5C 42.8633,17.9115 41.8633,19.4115 39.5,20C 36.9715,19.8951 34.6382,20.0617 32.5,20.5C 28.8951,22.9265 25.3951,25.5932 22,28.5C 20.2044,33.6838 19.0377,39.0172 18.5,44.5C 18.4336,48.5785 19.4336,52.2452 21.5,55.5C 22.8873,57.8766 23.7206,60.5432 24,63.5C 24.9973,65.3231 26.1639,66.9897 27.5,68.5C 26.8333,68.5 26.1667,68.5 25.5,68.5C 16.4227,59.7452 13.256,49.0785 16,36.5C 18.1457,33.8742 19.479,30.8742 20,27.5C 22.4913,25.7096 24.658,23.5429 26.5,21C 29.4695,20.2375 31.9695,18.7375 34,16.5C 34.3076,17.3081 34.8076,17.9747 35.5,18.5C 37.2199,17.066 39.2199,16.2326 41.5,16C 40.6919,15.6924 40.0253,15.1924 39.5,14.5C 42.1836,13.247 44.8503,12.247 47.5,11.5 Z"/></g>
<g><path style="opacity:1" fill="#595868" d="M 47.5,11.5 C 44.8503,12.247 42.1836,13.247 39.5,14.5C 40.0253,15.1924 40.6919,15.6924 41.5,16C 39.2199,16.2326 37.2199,17.066 35.5,18.5C 34.8076,17.9747 34.3076,17.3081 34,16.5C 31.9695,18.7375 29.4695,20.2375 26.5,21C 24.658,23.5429 22.4913,25.7096 20,27.5C 19.479,30.8742 18.1457,33.8742 16,36.5C 13.256,49.0785 16.4227,59.7452 25.5,68.5C 22.4411,68.2034 19.9411,66.8701 18,64.5C 11.2774,50.28 12.1107,36.6134 20.5,23.5C 27.3649,14.9046 36.3649,10.9046 47.5,11.5 Z"/></g>
<g><path style="opacity:1" fill="#72717c" d="M 32.5,20.5 C 30.205,23.2971 27.705,25.9638 25,28.5C 20.4264,35.7327 19.4264,43.3994 22,51.5C 23.484,47.9828 25.984,46.1495 29.5,46C 31.2418,51.2402 34.5751,55.0735 39.5,57.5C 40.1051,60.3064 41.4384,62.6397 43.5,64.5C 47.6514,62.9296 51.9847,61.7629 56.5,61C 57.9663,60.3645 59.2997,59.5312 60.5,58.5C 61.1067,58.6236 61.44,58.9569 61.5,59.5C 61.3462,64.2888 60.0129,68.6222 57.5,72.5C 57.5,71.5 57.5,70.5 57.5,69.5C 46.1722,71.8098 36.3388,69.1431 28,61.5C 26.0733,58.5474 24.24,55.5474 22.5,52.5C 21.6143,53.325 21.281,54.325 21.5,55.5C 19.4336,52.2452 18.4336,48.5785 18.5,44.5C 19.0377,39.0172 20.2044,33.6838 22,28.5C 25.3951,25.5932 28.8951,22.9265 32.5,20.5 Z"/></g>
<g><path style="opacity:1" fill="#f9db9c" d="M 68.5,23.5 C 71.5336,24.8724 73.5336,27.2057 74.5,30.5C 79.4865,42.5055 78.1531,53.6721 70.5,64C 68.1311,64.5359 66.1311,65.7026 64.5,67.5C 63.269,68.6507 63.269,69.8173 64.5,71C 62.6365,72.4307 60.6365,73.5974 58.5,74.5C 57.8333,74.5 57.1667,74.5 56.5,74.5C 56.8333,73.8333 57.1667,73.1667 57.5,72.5C 60.0129,68.6222 61.3462,64.2888 61.5,59.5C 62.4731,57.0521 62.8064,54.3854 62.5,51.5C 62.8333,51.5 63.1667,51.5 63.5,51.5C 64.7382,50.5876 66.0715,50.4209 67.5,51C 68.102,53.0363 69.102,54.8697 70.5,56.5C 68.0096,58.4121 66.0096,60.7455 64.5,63.5C 64.8333,63.8333 65.1667,64.1667 65.5,64.5C 66.8498,63.0499 68.5165,62.3832 70.5,62.5C 75.9921,52.6064 76.8254,42.273 73,31.5C 70.8431,29.1829 69.3431,26.5162 68.5,23.5 Z"/></g>
<g><path style="opacity:1" fill="#f6d18e" d="M 74.5,30.5 C 80.6618,38.0695 82.1618,46.7362 79,56.5C 76.5305,59.6034 75.0305,63.1034 74.5,67C 70.5,70 66.5,73 62.5,76C 60.6476,76.7726 59.3143,76.2726 58.5,74.5C 60.6365,73.5974 62.6365,72.4307 64.5,71C 63.269,69.8173 63.269,68.6507 64.5,67.5C 66.1311,65.7026 68.1311,64.5359 70.5,64C 78.1531,53.6721 79.4865,42.5055 74.5,30.5 Z"/></g>
<g><path style="opacity:1" fill="#676671" d="M 57.5,72.5 C 57.1667,73.1667 56.8333,73.8333 56.5,74.5C 56.5,75.1667 56.1667,75.5 55.5,75.5C 51.7123,75.3882 47.7123,75.2215 43.5,75C 37.7437,73.6135 32.4103,71.4468 27.5,68.5C 26.1639,66.9897 24.9973,65.3231 24,63.5C 23.7206,60.5432 22.8873,57.8766 21.5,55.5C 21.281,54.325 21.6143,53.325 22.5,52.5C 24.24,55.5474 26.0733,58.5474 28,61.5C 36.3388,69.1431 46.1722,71.8098 57.5,69.5C 57.5,70.5 57.5,71.5 57.5,72.5 Z"/></g>
<g><path style="opacity:0.991" fill="#41404c" d="M 38.5,82.5 C 30.608,80.9365 24.2747,76.9365 19.5,70.5C 19.3691,69.6236 19.7025,68.9569 20.5,68.5C 22.1151,69.154 23.7818,69.654 25.5,70C 30.8164,75.9715 37.4831,79.3048 45.5,80C 43.1003,80.7436 40.767,81.5769 38.5,82.5 Z"/></g>
<g><path style="opacity:1" fill="#53525f" d="M 20.5,23.5 C 12.1107,36.6134 11.2774,50.28 18,64.5C 19.9411,66.8701 22.4411,68.2034 25.5,68.5C 26.1667,68.5 26.8333,68.5 27.5,68.5C 32.4103,71.4468 37.7437,73.6135 43.5,75C 47.7123,75.2215 51.7123,75.3882 55.5,75.5C 53.6181,78.6227 51.2848,81.2894 48.5,83.5C 44.9581,83.8128 41.6248,83.4794 38.5,82.5C 40.767,81.5769 43.1003,80.7436 45.5,80C 37.4831,79.3048 30.8164,75.9715 25.5,70C 23.7818,69.654 22.1151,69.154 20.5,68.5C 19.7025,68.9569 19.3691,69.6236 19.5,70.5C 13.6814,64.0489 11.0148,56.3823 11.5,47.5C 10.977,38.0564 13.977,30.0564 20.5,23.5 Z"/></g>
</svg>
